<svg xmlns="http://www.w3.org/2000/svg" xmlns:xlink="http://www.w3.org/1999/xlink" width="588.202" height="268.02" viewBox="0 0 588.202 268.02">
  <defs>
    <clipPath id="clip-path">
      <rect id="Rectangle_32" data-name="Rectangle 32" width="588.202" height="268.02" transform="translate(733.398 6869.79)" fill="none"/>
    </clipPath>
  </defs>
  <g id="Group_29" data-name="Group 29" transform="translate(-733.398 -6869.79)">
    <g id="Group_28" data-name="Group 28">
      <g id="Group_27" data-name="Group 27" clip-path="url(#clip-path)">
        <path id="Path_5" data-name="Path 5" d="M734.289,6956.9c52.919,12.086,109.058-3.069,154.324-41.66,18.64-15.891,36.473-36.125,58.33-40.568,23.786-4.838,48.009,10.845,64.435,34.35s26.152,53.935,33.608,84.52,13,62.1,22.647,91.573c5,15.277,11.5,30.536,21.982,39.582,10.788,9.313,24.546,10.763,37.168,7.606,28.53-7.136,43.272-51.562,60.777-82.515s20.281-45.984,33.739-71.589c13.1-24.911,49.481-24.373,99.954-19.952" fill="none" stroke="#4ab862" stroke-miterlimit="10" stroke-width="8" stroke-dasharray="24 24 24 24 24 24"/>
      </g>
    </g>
  </g>
</svg>
