<svg xmlns="http://www.w3.org/2000/svg" width="586.625" height="302.935" viewBox="0 0 586.625 302.935">
  <path id="Path_6" data-name="Path 6" d="M738.79,6821.042c35.494-23.35,84.006,1.747,98.5,50.957,8.005,27.175,6.354,57.542,3.766,86.543s-5.97,58.662-1.1,87.133,20.283,55.964,41.833,60.746c18.4,4.085,36.467-8.844,51.5-23.621a294.24,294.24,0,0,0,46.2-59.487c9.43-15.857,18.093-36.889,11.993-55.433-6.689-20.334-29.933-23.964-42.126-8.876s-12.979,42.2-4.541,61.333a64.761,64.761,0,0,0,40.368,35.9c29.318,9.086,61.761-2.391,83.881-29.674,32.914-40.594,27.068-119.659,61.3-158.257,93.87-105.847,83.6,29.484,190.89,89.946" transform="translate(-736.592 -6808.225)" fill="none" stroke="#4ab862" stroke-miterlimit="10" stroke-width="8" stroke-dasharray="24 24 24 24 24 24"/>
</svg>
