<?xml version="1.0" encoding="UTF-8"?>
<svg id="Layer_2" data-name="Layer 2" xmlns="http://www.w3.org/2000/svg" viewBox="0 0 124.82 124.82">
  <defs>
    <style>
      .cls-1 {
        fill: #ff745c;
      }

      .cls-1, .cls-2, .cls-3, .cls-4, .cls-5 {
        stroke-width: 0px;
      }

      .cls-2 {
        fill: #ffaf00;
      }

      .cls-3 {
        fill: #515251;
      }

      .cls-4 {
        fill: #00c4e8;
      }

      .cls-5 {
        fill: #fff;
      }
    </style>
  </defs>
  <g id="Icon">
    <g>
      <path class="cls-4" d="m116.96,92.76c-10.66,19.13-31.09,32.07-54.55,32.07s-43.79-12.88-54.47-31.93l54.47-32.51v-.18l54.55,32.56Z"/>
      <g>
        <path class="cls-5" d="m30.9,104.2l-1.38,1.56-5.6-4.94,7.71-8.75,5.48,4.84-1.38,1.56-3.72-3.28-1.84,2.08,3.26,2.88-1.4,1.59-3.26-2.88-1.72,1.95,3.83,3.38Z"/>
        <path class="cls-5" d="m42.86,113.21l2.39-6.87-5.13,4.08-1.66-.8v-6.57s-3.93,6.13-3.93,6.13l-2.16-1.05,6.38-9.87,1.8.87-.09,8.46,6.55-5.33,1.83.89-3.8,11.11-2.16-1.05Z"/>
        <path class="cls-5" d="m49.51,109.46c.48-3.28,3.45-5.55,6.73-5.06,3.27.48,5.49,3.51,5,6.79-.48,3.26-3.48,5.52-6.75,5.04-3.28-.48-5.47-3.51-4.99-6.77Zm9.39,1.39c.31-2.08-.92-3.95-2.98-4.25-2.08-.31-3.78,1.14-4.08,3.21-.31,2.08.91,3.95,2.98,4.25,2.06.3,3.78-1.14,4.08-3.21Z"/>
        <path class="cls-5" d="m70.66,106.52l-3.2.28.85,9.54-2.34.21-.84-9.54-3.2.28-.18-2.07,8.75-.77.18,2.07Z"/>
        <path class="cls-5" d="m71.51,104.02l2.28-.57,2.82,11.31-2.28.57-2.82-11.31Z"/>
        <path class="cls-5" d="m77.67,108.73c-1.41-3-.2-6.53,2.81-7.95,2.99-1.41,6.51-.11,7.93,2.89,1.41,2.99.16,6.53-2.83,7.94-3,1.41-6.5.1-7.91-2.88Zm8.59-4.05c-.89-1.9-2.96-2.78-4.84-1.89-1.9.89-2.52,3.04-1.62,4.94.89,1.9,2.94,2.79,4.84,1.89,1.88-.89,2.52-3.04,1.62-4.94Z"/>
        <path class="cls-5" d="m93.3,92.03l7.55,8.89-1.61,1.37-7.96-2.84,4.73,5.57-1.79,1.52-7.55-8.89,1.67-1.41,7.85,2.82-4.68-5.51,1.79-1.52Z"/>
      </g>
      <g>
        <path class="cls-5" d="m34.67,85.82l-.85-1.05-.85.32-.49-.6,3.64-1.23.49.61-1.95,3.31-.48-.59.49-.77Zm.35-.57l.76-1.21-1.34.5.58.71Z"/>
        <path class="cls-5" d="m36.2,86.19c.72-.71,1.88-.72,2.59,0,.43.43.6,1.02.5,1.57l-.68-.11c.06-.35-.03-.69-.3-.96-.46-.46-1.16-.44-1.61.01-.46.45-.5,1.16-.04,1.62.27.27.61.36.96.3l.1.68c-.55.09-1.13-.08-1.56-.52-.72-.72-.7-1.88.02-2.6Z"/>
        <path class="cls-5" d="m38.8,88.78c.64-.78,1.79-.91,2.58-.27.47.39.7.95.66,1.51l-.68-.04c.02-.35-.1-.68-.39-.92-.51-.41-1.2-.32-1.61.18-.41.5-.37,1.2.13,1.61.3.24.65.3.99.2l.17.67c-.54.14-1.14.04-1.61-.35-.79-.65-.9-1.8-.25-2.59Z"/>
        <path class="cls-5" d="m43.16,93.46l-.36.53-1.92-1.28,2-2.99,1.88,1.25-.36.53-1.27-.85-.48.71,1.12.75-.36.54-1.12-.75-.45.67,1.31.88Z"/>
        <path class="cls-5" d="m47.05,93.59c-.28.52-.87.85-1.59.46l-.65-.36-.6,1.1-.64-.35,1.72-3.16,1.29.7c.72.39.75,1.08.47,1.59Zm-.64-.35c.13-.23.14-.53-.16-.69l-.63-.34-.51.93.62.34c.31.17.55,0,.67-.23Z"/>
        <path class="cls-5" d="m49.96,94.29l-.91-.4-1.18,2.71-.67-.29,1.18-2.71-.91-.4.26-.59,2.49,1.09-.26.59Z"/>
        <path class="cls-5" d="m51.3,96.96l-1.28-.44-.55.72-.73-.25,2.44-2.97.74.25.1,3.84-.72-.25v-.91Zm0-.67v-1.43s-.87,1.13-.87,1.13l.87.3Z"/>
        <path class="cls-5" d="m56.08,95.39l-.83,3.5-.64-.15-.75-2.49-.52,2.2-.71-.17.83-3.5.66.15.74,2.46.51-2.17.71.17Z"/>
        <path class="cls-5" d="m56.38,97.28c.13-1.01,1.03-1.72,2.05-1.59.61.08,1.1.43,1.36.93l-.6.33c-.17-.31-.44-.53-.82-.57-.65-.08-1.18.37-1.27,1-.08.64.32,1.21.97,1.3.38.05.71-.09.95-.35l.5.47c-.38.4-.94.63-1.55.56-1.01-.13-1.71-1.05-1.58-2.07Z"/>
        <path class="cls-5" d="m62.54,98.95l-.02.64-2.3-.07.11-3.6,2.26.07-.02.64-1.53-.05-.03.86,1.34.04-.02.65-1.34-.04-.02.8,1.58.05Z"/>
        <path class="cls-5" d="m64.35,97.75c-.1-1.01.62-1.91,1.63-2.02.61-.06,1.17.18,1.54.59l-.51.46c-.23-.27-.55-.41-.93-.37-.65.07-1.07.62-1.01,1.26.07.64.59,1.11,1.24,1.05.38-.04.67-.25.84-.56l.59.35c-.28.48-.78.83-1.38.89-1.01.1-1.9-.64-2.01-1.65Z"/>
        <path class="cls-5" d="m68.01,97.37c-.21-1,.4-1.98,1.4-2.19,1-.21,1.97.42,2.18,1.42.21,1-.41,1.97-1.41,2.19-1,.22-1.96-.42-2.17-1.42Zm2.87-.62c-.14-.63-.69-1.04-1.32-.91-.63.14-.97.74-.83,1.37s.69,1.04,1.32.91c.63-.13.97-.74.83-1.37Z"/>
        <path class="cls-5" d="m74.25,93.83l1.13,3.42-.62.21-1.95-1.73.71,2.14-.69.23-1.13-3.42.64-.21,1.92,1.71-.7-2.12.69-.23Z"/>
        <path class="cls-5" d="m77.4,92.46l1.48,3.28-.6.27-2.12-1.52.93,2.06-.66.3-1.48-3.28.62-.28,2.09,1.51-.91-2.03.66-.3Z"/>
        <path class="cls-5" d="m81.53,93.54l.32.56-2,1.14-1.78-3.13,1.96-1.11.32.56-1.33.76.42.74,1.17-.66.32.57-1.17.66.4.7,1.37-.78Z"/>
        <path class="cls-5" d="m81.34,92.3c-.58-.83-.39-1.97.45-2.56.5-.35,1.11-.41,1.63-.23l-.22.65c-.33-.12-.68-.09-1,.13-.54.37-.63,1.07-.27,1.59.37.53,1.05.69,1.59.31.32-.22.46-.54.46-.9l.69.02c0,.55-.28,1.1-.78,1.45-.84.58-1.97.37-2.56-.47Z"/>
        <path class="cls-5" d="m85.59,87.6l-.76.64,1.91,2.25-.55.47-1.91-2.25-.76.64-.41-.49,2.07-1.75.42.49Z"/>
        <path class="cls-5" d="m89.2,87.25l.46.45-1.62,1.63-2.55-2.54,1.59-1.6.46.45-1.08,1.09.61.6.95-.95.46.46-.95.95.57.57,1.11-1.12Z"/>
        <path class="cls-5" d="m87.49,84.76l.89-1.09c.65-.8,1.64-.77,2.43-.12.79.64,1.01,1.6.35,2.4l-.89,1.09-2.79-2.28Zm3.18.78c.38-.47.16-1.04-.31-1.43-.48-.39-1.1-.5-1.48-.03l-.43.53,1.79,1.46.43-.53Z"/>
      </g>
      <path class="cls-2" d="m124.82,62.41c0,11.01-2.85,21.37-7.87,30.35l-54.55-32.56V0c34.47,0,62.41,27.94,62.41,62.41Z"/>
      <g>
        <path class="cls-5" d="m92.9,30.22c-1,1.32-2.97,2.05-5.08.45l-4.07-3.09,7.25-9.55,3.78,2.87c1.7,1.29,2.02,3.15.93,4.59-.54.71-1.54,1.45-2.82.98,1.06,1.13.84,2.67.02,3.75Zm-1.79-1.67c.45-.6.52-1.52-.39-2.22l-1.9-1.44-1.85,2.44,1.87,1.42c.9.68,1.79.44,2.27-.2Zm.52-7.36l-1.59,2.09,1.75,1.33c.61.46,1.29.35,1.78-.31.44-.58.48-1.27-.19-1.79l-1.75-1.33Z"/>
        <path class="cls-5" d="m96.27,29.76c2.74-2.03,6.54-1.52,8.57,1.22,2.02,2.72,1.43,6.54-1.31,8.57-2.72,2.02-6.55,1.48-8.57-1.25-2.03-2.74-1.42-6.53,1.3-8.55Zm5.82,7.84c1.73-1.29,2.2-3.54.93-5.26-1.29-1.73-3.57-1.92-5.3-.64-1.73,1.29-2.21,3.53-.93,5.26,1.27,1.72,3.57,1.92,5.3.64Z"/>
        <path class="cls-5" d="m110.51,40.47l1.56,4.43c1.14,3.25-.66,6-3.88,7.13-3.2,1.12-6.29.09-7.43-3.16l-1.56-4.43,11.31-3.97Zm-7.74,7.69c.66,1.89,2.68,2.27,4.61,1.59,1.94-.68,3.32-2.25,2.66-4.14l-.75-2.15-7.27,2.55.75,2.15Z"/>
        <path class="cls-5" d="m115.37,64.05l-6.93-4.12-5.39.44-.2-2.41,5.43-.44,6.14-5.16.23,2.88-4.3,3.32,4.79,2.63.23,2.86Z"/>
      </g>
      <g>
        <path class="cls-5" d="m78.51,33.07c-.22.44-.76.77-1.47.42l-1.38-.68,1.6-3.22,1.28.63c.58.29.77.82.53,1.3-.12.24-.37.52-.78.45.38.27.4.74.22,1.1Zm-.62-.39c.1-.2.07-.48-.24-.63l-.64-.32-.41.82.63.31c.3.15.55.03.66-.19Zm-.26-2.2l-.35.71.59.29c.21.1.4.03.51-.19.1-.2.07-.4-.16-.52l-.59-.29Z"/>
        <path class="cls-5" d="m80.05,33.7l-.21-.13-.68,1.09-.61-.38,1.91-3.05,1.22.76c.7.44.69,1.12.38,1.62-.27.43-.74.68-1.32.47l.09,1.62-.72-.45-.04-1.55Zm.1-.63l.49.31c.34.22.62.1.77-.14s.14-.56-.15-.74l-.54-.34-.57.92Z"/>
        <path class="cls-5" d="m83.49,36.93l-.39.51-1.83-1.4,2.19-2.86,1.79,1.37-.39.51-1.21-.93-.52.68,1.07.82-.4.52-1.07-.82-.49.64,1.25.96Z"/>
        <path class="cls-5" d="m85.58,38.53l-.99-.92-.8.44-.57-.53,3.44-1.72.57.53-1.48,3.55-.56-.52.37-.83Zm.27-.61l.59-1.3-1.26.68.67.62Z"/>
        <path class="cls-5" d="m89.55,39.7l-.67-.74-2.19,1.98-.49-.54,2.19-1.98-.67-.74.48-.43,1.82,2.01-.48.43Z"/>
        <path class="cls-5" d="m92.21,42.16l-2.9,2.14-.43-.58,1.18-.87-.8-1.08-1.18.87-.43-.59,2.9-2.14.43.59-1.2.88.8,1.08,1.2-.88.43.58Z"/>
        <path class="cls-5" d="m93.76,47.17c-.52.28-1.2.23-1.58-.48l-.35-.65-1.11.6-.34-.64,3.17-1.7.7,1.29c.39.72.04,1.31-.48,1.59Zm-.35-.64c.23-.12.41-.37.25-.67l-.34-.63-.93.5.34.62c.17.31.47.29.69.17Z"/>
        <path class="cls-5" d="m93.39,49.18l-.09-.23-1.19.5-.28-.67,3.32-1.38.55,1.33c.32.76-.09,1.32-.63,1.54-.47.2-1,.13-1.35-.38l-.87,1.37-.33-.79.86-1.29Zm.45-.45l.22.54c.16.38.45.44.72.33.27-.11.44-.38.31-.69l-.24-.59-1,.42Z"/>
        <path class="cls-5" d="m94.32,53.78l-.61.19-.68-2.2,3.44-1.06.66,2.16-.61.19-.45-1.46-.82.25.39,1.28-.62.19-.4-1.28-.77.24.46,1.51Z"/>
        <path class="cls-5" d="m94.85,54.16l.15.71c-.25.06-.41.35-.34.68.07.32.28.49.53.44.19-.04.3-.21.33-.54l.03-.46c.04-.82.48-1.05.79-1.12.63-.13,1.16.32,1.31.99.14.67-.15,1.26-.82,1.4l-.15-.71c.25-.05.41-.27.34-.58-.06-.28-.27-.45-.51-.4-.09.02-.27.08-.29.47l-.03.42c-.04.56-.22,1.09-.82,1.22-.7.15-1.2-.37-1.34-1.04-.16-.75.19-1.37.81-1.5Z"/>
        <path class="cls-5" d="m95.35,59.69l-.64.08-.28-2.29,3.57-.43.27,2.24-.64.08-.18-1.52-.85.1.16,1.33-.65.08-.16-1.33-.8.1.19,1.57Z"/>
        <path class="cls-5" d="m98.41,62.98l-3.6.08v-.65s2.21-1.35,2.21-1.35l-2.26.05-.02-.73,3.6-.08v.67s-2.19,1.33-2.19,1.33l2.23-.05.02.73Z"/>
        <path class="cls-5" d="m97.54,66.46l.08-.99-2.95-.23.06-.72,2.95.23.08-.99.64.05-.21,2.7-.64-.05Z"/>
      </g>
      <path class="cls-1" d="m62.41,0v60.38L7.94,92.89C2.88,83.88,0,73.48,0,62.41,0,27.94,27.94,0,62.41,0Z"/>
      <g>
        <path class="cls-5" d="m12.36,76.75l-.52-1.95,9.67-2.56.52,1.95-9.67,2.56Z"/>
        <path class="cls-5" d="m10.25,63.82l9.96-.98.18,1.81-5.89,4.22,6.24-.61.2,2.01-9.96.98-.18-1.86,5.82-4.16-6.17.61-.2-2.01Z"/>
        <path class="cls-5" d="m12.81,53.46l-.29,2.74,8.17.85-.21,2.01-8.17-.85-.29,2.74-1.78-.18.78-7.49,1.78.18Z"/>
        <path class="cls-5" d="m21.37,46.62l1.71.51-1.82,6.14-9.59-2.84,1.78-6.01,1.71.51-1.21,4.08,2.28.68,1.06-3.58,1.74.52-1.06,3.58,2.14.63,1.25-4.2Z"/>
        <path class="cls-5" d="m14.78,41.27l.9-1.8,7.35,3.68,1.7-3.39,1.6.8-2.6,5.19-8.94-4.48Z"/>
        <path class="cls-5" d="m18.88,33.76l1.19-1.63,6.64,4.84,2.23-3.06,1.44,1.05-3.42,4.69-8.08-5.89Z"/>
        <path class="cls-5" d="m34.51,28.44l1.24,1.29-4.61,4.44-6.93-7.21,4.52-4.35,1.24,1.29-3.07,2.95,1.65,1.72,2.69-2.59,1.26,1.31-2.69,2.58,1.55,1.61,3.16-3.04Z"/>
        <path class="cls-5" d="m33.51,25.01c-1.51-2.38-.83-5.52,1.56-7.03,1.43-.91,3.12-1.01,4.56-.43l-.7,1.77c-.9-.37-1.88-.34-2.77.23-1.53.97-1.89,2.88-.93,4.39.96,1.51,2.83,2.03,4.37,1.06.91-.57,1.35-1.44,1.4-2.43l1.9.13c-.09,1.54-.9,3.03-2.33,3.93-2.39,1.51-5.52.78-7.04-1.62Z"/>
        <path class="cls-5" d="m48.33,14l-2.58.97,2.88,7.69-1.89.71-2.88-7.69-2.58.97-.63-1.67,7.05-2.64.63,1.67Z"/>
      </g>
      <g>
        <path class="cls-5" d="m28.98,63.97v-.73c.26,0,.47-.26.47-.59,0-.32-.17-.54-.43-.54-.2,0-.34.15-.43.46l-.12.44c-.2.79-.68.94-1,.94-.64,0-1.08-.55-1.08-1.24,0-.68.4-1.21,1.09-1.21v.73c-.25,0-.45.18-.44.5,0,.28.18.5.42.49.09,0,.28-.03.38-.41l.11-.4c.15-.54.43-1.02,1.04-1.03.72,0,1.1.6,1.1,1.28,0,.77-.46,1.3-1.1,1.31Z"/>
        <path class="cls-5" d="m26.48,60.56l.04-.73,3.59.22-.04.73-3.59-.22Z"/>
        <path class="cls-5" d="m26.6,58.78l.09-.72,2.93.37.17-1.35.64.08-.26,2.08-3.57-.45Z"/>
        <path class="cls-5" d="m30.37,54.3l.63.13-.48,2.25-3.52-.75.47-2.21.63.13-.32,1.5.84.18.28-1.31.64.14-.28,1.31.79.17.33-1.54Z"/>
        <path class="cls-5" d="m28.53,50.19l3.43,1.09-.2.62-2.55.56,2.15.69-.22.69-3.43-1.09.2-.64,2.52-.55-2.13-.68.22-.69Z"/>
        <path class="cls-5" d="m30.5,50.03c-.93-.41-1.36-1.48-.94-2.42.25-.56.73-.93,1.28-1.04l.14.67c-.34.07-.63.28-.78.62-.26.6.01,1.24.6,1.5.59.26,1.26.04,1.52-.56.16-.35.12-.7-.07-1.01l.6-.34c.28.48.34,1.09.09,1.65-.41.93-1.49,1.34-2.43.93Z"/>
        <path class="cls-5" d="m34.31,45l.56.32-1.14,2-3.13-1.78,1.12-1.96.56.32-.76,1.33.74.42.66-1.17.57.32-.66,1.17.7.4.78-1.37Z"/>
        <path class="cls-5" d="m34.31,42.86c-.81-.63-.96-1.77-.33-2.58.63-.8,1.78-.94,2.59-.31.8.63.95,1.78.33,2.58-.63.81-1.78.93-2.58.31Zm1.8-2.31c-.51-.4-1.2-.35-1.6.15-.4.51-.27,1.19.24,1.59.51.4,1.2.36,1.6-.15.4-.51.27-1.19-.24-1.59Z"/>
        <path class="cls-5" d="m38.48,37.09c.42.41.58,1.07.01,1.66l-.52.53.9.88-.51.52-2.58-2.51,1.03-1.05c.57-.58,1.24-.43,1.66-.02Zm-.51.52c-.19-.18-.47-.28-.71-.04l-.5.51.76.74.49-.51c.24-.25.14-.53-.04-.71Z"/>
        <path class="cls-5" d="m41.93,36.47l.42.49-1.75,1.5-2.34-2.74,1.72-1.47.42.49-1.16.99.56.65,1.02-.87.42.5-1.02.87.52.61,1.2-1.02Z"/>
        <path class="cls-5" d="m42.98,32.09l2.06,2.95-.54.37-2.36-1.11,1.29,1.85-.6.42-2.06-2.95.55-.39,2.33,1.1-1.28-1.83.6-.42Z"/>
      </g>
      <circle class="cls-3" cx="62.41" cy="62.41" r="27.58"/>
      <g>
        <path class="cls-5" d="m49.42,53.99c0,.92-.56,1.81-1.83,1.81h-1.15v1.96h-1.13v-5.6h2.28c1.27,0,1.83.91,1.83,1.83Zm-1.14,0c0-.41-.2-.83-.73-.83h-1.11v1.65h1.1c.54,0,.75-.42.75-.82Z"/>
        <path class="cls-5" d="m50.27,55.77v-3.6h1.13v3.54c0,.76.49,1.06,1.01,1.06s1.02-.31,1.02-1.06v-3.54h1.13v3.6c0,1.29-1,2.07-2.15,2.07s-2.14-.78-2.14-2.07Z"/>
        <path class="cls-5" d="m57.36,55.76h-.38v2.01h-1.13v-5.6h2.24c1.28,0,1.84.91,1.84,1.83,0,.8-.41,1.51-1.36,1.71l1.46,2.06h-1.32l-1.33-2.01Zm-.38-.91h.9c.63,0,.9-.38.9-.83s-.28-.85-.81-.85h-.99v1.68Z"/>
        <path class="cls-5" d="m65.14,53.99c0,.92-.56,1.81-1.83,1.81h-1.15v1.96h-1.13v-5.6h2.28c1.27,0,1.83.91,1.83,1.83Zm-1.14,0c0-.41-.2-.83-.73-.83h-1.11v1.65h1.1c.54,0,.75-.42.75-.82Z"/>
        <path class="cls-5" d="m65.7,54.97c0-1.59,1.25-2.88,2.85-2.88s2.85,1.28,2.85,2.88-1.27,2.87-2.85,2.87-2.85-1.28-2.85-2.87Zm4.56,0c0-1.01-.72-1.81-1.72-1.81s-1.72.8-1.72,1.81.71,1.81,1.72,1.81,1.72-.8,1.72-1.81Z"/>
        <path class="cls-5" d="m72.11,56.11h1.13c0,.41.4.74.92.74s.84-.26.84-.66c0-.31-.23-.53-.71-.67l-.68-.2c-1.23-.33-1.45-1.06-1.45-1.57,0-1,.86-1.67,1.93-1.67s1.87.64,1.87,1.71h-1.13c0-.4-.28-.71-.76-.71-.44,0-.77.27-.77.64,0,.14.04.43.63.59l.63.18c.85.24,1.59.68,1.59,1.63,0,1.11-.95,1.7-2.01,1.7-1.19,0-2.02-.73-2.02-1.72Z"/>
        <path class="cls-5" d="m80.74,56.77v1h-3.58v-5.6h3.51v1h-2.38v1.33h2.09v1.02h-2.09v1.25h2.45Z"/>
        <path class="cls-5" d="m48.08,63.09c0-1.58,1.26-2.86,2.85-2.86.95,0,1.78.46,2.28,1.16l-.86.63c-.32-.45-.79-.72-1.38-.72-1.02,0-1.76.8-1.76,1.8s.73,1.81,1.75,1.81c.6,0,1.07-.28,1.39-.73l.86.63c-.5.7-1.33,1.16-2.28,1.16-1.59,0-2.85-1.28-2.85-2.88Z"/>
        <path class="cls-5" d="m57.7,64.89v1h-3.58v-5.6h3.51v1h-2.38v1.33h2.09v1.02h-2.09v1.25h2.45Z"/>
        <path class="cls-5" d="m62.96,60.29v5.6h-1.02l-2.03-3.51v3.51h-1.13v-5.6h1.05l2,3.47v-3.47h1.13Z"/>
        <path class="cls-5" d="m68.02,61.29h-1.54v4.6h-1.13v-4.6h-1.54v-1h4.22v1Z"/>
        <path class="cls-5" d="m72.45,64.89v1h-3.58v-5.6h3.51v1h-2.38v1.33h2.09v1.02h-2.09v1.25h2.45Z"/>
        <path class="cls-5" d="m75.04,63.89h-.38v2.01h-1.13v-5.6h2.24c1.28,0,1.84.91,1.84,1.83,0,.8-.41,1.51-1.36,1.71l1.45,2.06h-1.32l-1.33-2.01Zm-.38-.91h.9c.63,0,.9-.38.9-.83s-.28-.85-.81-.85h-.99v1.68Z"/>
        <path class="cls-5" d="m50.26,74.02l-.41-3.47-1.37,2.84h-.89l-1.38-2.84-.41,3.47h-1.15l.69-5.6h.96l1.73,3.67,1.72-3.67h.98l.68,5.6h-1.15Z"/>
        <path class="cls-5" d="m56.06,73.02v1h-3.58v-5.6h3.51v1h-2.38v1.33h2.09v1.02h-2.09v1.25h2.45Z"/>
        <path class="cls-5" d="m60.16,72.68h-2.1l-.45,1.34h-1.2l2.09-5.6h1.22l2.08,5.6h-1.19l-.46-1.34Zm-.34-.98l-.72-2.11-.71,2.11h1.42Z"/>
        <path class="cls-5" d="m66.63,68.42v5.6h-1.02l-2.03-3.51v3.51h-1.13v-5.6h1.05l2,3.47v-3.47h1.13Z"/>
        <path class="cls-5" d="m67.99,68.42h1.13v5.6h-1.13v-5.6Z"/>
        <path class="cls-5" d="m74.67,68.42v5.6h-1.02l-2.03-3.51v3.51h-1.13v-5.6h1.05l2,3.47v-3.47h1.13Z"/>
        <path class="cls-5" d="m75.69,71.22c0-1.59,1.25-2.88,2.86-2.88.85,0,1.59.35,2.07.89l-.82.71c-.32-.34-.76-.55-1.25-.55-.98,0-1.73.83-1.73,1.83s.76,1.86,1.73,1.86c.73,0,1.31-.35,1.46-.93.02-.04.02-.09.03-.14h-1.59v-.92h2.82c0,2.07-1.11,3-2.72,3s-2.86-1.28-2.86-2.87Z"/>
      </g>
    </g>
  </g>
</svg>