<?xml version="1.0" encoding="UTF-8"?>
<svg id="Layer_2" data-name="Layer 2" xmlns="http://www.w3.org/2000/svg" viewBox="0 0 115.4 81.69">
  <defs>
    <style>
      .cls-1 {
        fill: #ff745c;
      }

      .cls-1, .cls-2, .cls-3, .cls-4, .cls-5, .cls-6, .cls-7 {
        stroke-width: 0px;
      }

      .cls-2 {
        fill: #ffaf00;
      }

      .cls-3 {
        fill: #515251;
      }

      .cls-4 {
        fill: #00c4e8;
      }

      .cls-5 {
        fill: #fff;
      }

      .cls-6 {
        fill: #888;
      }

      .cls-7 {
        fill: #00bb57;
      }
    </style>
  </defs>
  <g id="Icon">
    <g>
      <polygon class="cls-4" points="59.42 26.42 30.35 26.42 44.88 .04 59.42 26.42"/>
      <g>
        <path class="cls-5" d="m43.2,17.72v1.88h-.38v-.76h-.7v.76h-.38v-1.88h.38v.78h.7v-.78h.38Z"/>
        <path class="cls-5" d="m43.66,17.72h.38v1.88h-.38v-1.88Z"/>
        <path class="cls-5" d="m44.39,18.67c0-.54.42-.97.96-.97.28,0,.53.12.7.3l-.28.24c-.11-.11-.26-.19-.42-.19-.33,0-.58.28-.58.61s.25.63.58.63c.25,0,.44-.12.49-.31,0-.01,0-.03.01-.05h-.53v-.31h.95c0,.7-.37,1.01-.92,1.01s-.96-.43-.96-.96Z"/>
        <path class="cls-5" d="m48.03,17.72v1.88h-.38v-.76h-.7v.76h-.38v-1.88h.38v.78h.7v-.78h.38Z"/>
        <path class="cls-5" d="m36.51,20.77c0,.31-.19.61-.61.61h-.39v.66h-.38v-1.88h.77c.43,0,.61.31.61.61Zm-.38,0c0-.14-.07-.28-.25-.28h-.37v.55h.37c.18,0,.25-.14.25-.28Z"/>
        <path class="cls-5" d="m38.02,21.7v.34h-1.2v-1.88h1.18v.34h-.8v.45h.7v.34h-.7v.42h.83Z"/>
        <path class="cls-5" d="m38.89,21.36h-.13v.67h-.38v-1.88h.75c.43,0,.62.31.62.61,0,.27-.14.51-.46.57l.49.69h-.45l-.45-.67Zm-.13-.31h.3c.21,0,.3-.13.3-.28s-.1-.29-.27-.29h-.33v.57Z"/>
        <path class="cls-5" d="m40.5,20.49v.45h.62v.33h-.62v.76h-.38v-1.88h1.16v.34h-.78Z"/>
        <path class="cls-5" d="m41.45,21.09c0-.54.42-.97.96-.97s.96.43.96.97-.43.96-.96.96-.96-.43-.96-.96Zm1.53,0c0-.34-.24-.61-.58-.61s-.58.27-.58.61.24.61.58.61.58-.27.58-.61Z"/>
        <path class="cls-5" d="m44.21,21.36h-.13v.67h-.38v-1.88h.75c.43,0,.62.31.62.61,0,.27-.14.51-.46.57l.49.69h-.45l-.45-.67Zm-.13-.31h.3c.21,0,.3-.13.3-.28s-.1-.29-.27-.29h-.33v.57Z"/>
        <path class="cls-5" d="m47.23,22.03l-.14-1.17-.46.95h-.3l-.46-.95-.14,1.17h-.39l.23-1.88h.32l.58,1.23.58-1.23h.33l.23,1.88h-.39Z"/>
        <path class="cls-5" d="m48.99,21.58h-.7l-.15.45h-.4l.7-1.88h.41l.7,1.88h-.4l-.15-.45Zm-.11-.33l-.24-.71-.24.71h.48Z"/>
        <path class="cls-5" d="m51.16,20.15v1.88h-.34l-.68-1.18v1.18h-.38v-1.88h.35l.67,1.17v-1.17h.38Z"/>
        <path class="cls-5" d="m51.51,21.09c0-.53.42-.96.96-.96.32,0,.6.15.77.39l-.29.21c-.11-.15-.26-.24-.46-.24-.34,0-.59.27-.59.6s.25.61.59.61c.2,0,.36-.09.47-.25l.29.21c-.17.23-.45.39-.77.39-.53,0-.96-.43-.96-.97Z"/>
        <path class="cls-5" d="m54.74,21.7v.34h-1.2v-1.88h1.18v.34h-.8v.45h.7v.34h-.7v.42h.83Z"/>
        <path class="cls-5" d="m39.19,23.52c0-.53.42-.96.96-.96.32,0,.6.15.77.39l-.29.21c-.11-.15-.26-.24-.46-.24-.34,0-.59.27-.59.6s.25.61.59.61c.2,0,.36-.09.47-.25l.29.21c-.17.23-.45.39-.77.39-.53,0-.96-.43-.96-.97Z"/>
        <path class="cls-5" d="m41.19,23.79v-1.21h.38v1.19c0,.25.16.36.34.36s.34-.1.34-.36v-1.19h.38v1.21c0,.43-.34.7-.72.7s-.72-.26-.72-.7Z"/>
        <path class="cls-5" d="m43.07,22.58h.38v1.55h.71v.34h-1.09v-1.88Z"/>
        <path class="cls-5" d="m45.48,22.92h-.52v1.55h-.38v-1.55h-.52v-.34h1.42v.34Z"/>
        <path class="cls-5" d="m45.74,23.79v-1.21h.38v1.19c0,.25.16.36.34.36s.34-.1.34-.36v-1.19h.38v1.21c0,.43-.34.7-.72.7s-.72-.26-.72-.7Z"/>
        <path class="cls-5" d="m48.13,23.79h-.13v.67h-.38v-1.88h.75c.43,0,.62.31.62.61,0,.27-.14.51-.46.57l.49.69h-.45l-.45-.67Zm-.13-.31h.3c.21,0,.3-.13.3-.28s-.1-.29-.27-.29h-.33v.57Z"/>
        <path class="cls-5" d="m50.56,24.13v.34h-1.2v-1.88h1.18v.34h-.8v.45h.7v.34h-.7v.42h.83Z"/>
      </g>
      <polygon class="cls-7" points="69.74 45.15 20.03 45.15 29.92 27.2 59.84 27.2 69.74 45.15"/>
      <g>
        <path class="cls-5" d="m30.42,36.55c0-.53.42-.96.96-.96.32,0,.6.15.77.39l-.29.21c-.11-.15-.26-.24-.46-.24-.34,0-.59.27-.59.6s.25.61.59.61c.2,0,.36-.09.47-.25l.29.21c-.17.24-.45.39-.77.39-.53,0-.96-.43-.96-.97Z"/>
        <path class="cls-5" d="m34.03,35.61l-.73,1.03v.85h-.38v-.86l-.73-1.03h.45l.46.72.47-.72h.45Z"/>
        <path class="cls-5" d="m34.01,36.55c0-.53.42-.96.96-.96.32,0,.6.15.77.39l-.29.21c-.11-.15-.26-.24-.46-.24-.34,0-.59.27-.59.6s.25.61.59.61c.2,0,.36-.09.47-.25l.29.21c-.17.24-.45.39-.77.39-.53,0-.96-.43-.96-.97Z"/>
        <path class="cls-5" d="m37.24,37.16v.34h-1.2v-1.88h1.18v.34h-.8v.45h.7v.34h-.7v.42h.83Z"/>
        <path class="cls-5" d="m37.61,35.61h.38v1.55h.71v.34h-1.09v-1.88Z"/>
        <path class="cls-5" d="m39.43,36.55c0-.54.42-.97.96-.97s.96.43.96.97-.43.96-.96.96-.96-.43-.96-.96Zm1.53,0c0-.34-.24-.61-.58-.61s-.58.27-.58.61.24.61.58.61.58-.27.58-.61Z"/>
        <path class="cls-5" d="m42.07,35.95v.45h.62v.33h-.62v.76h-.38v-1.88h1.16v.34h-.78Z"/>
        <path class="cls-5" d="m43.75,35.61h.38v1.55h.71v.34h-1.09v-1.88Z"/>
        <path class="cls-5" d="m46.33,37.16v.34h-1.2v-1.88h1.18v.34h-.8v.45h.7v.34h-.7v.42h.83Z"/>
        <path class="cls-5" d="m47.71,37.04h-.7l-.15.45h-.4l.7-1.88h.41l.7,1.88h-.4l-.15-.45Zm-.11-.33l-.24-.71-.24.71h.48Z"/>
        <path class="cls-5" d="m48.48,35.61h.74c.54,0,.86.41.86.95s-.31.94-.86.94h-.74v-1.88Zm.74,1.55c.31,0,.48-.28.48-.6s-.16-.61-.48-.61h-.36v1.21h.36Z"/>
        <path class="cls-5" d="m51.63,37.16v.34h-1.2v-1.88h1.18v.34h-.8v.45h.7v.34h-.7v.42h.83Z"/>
        <path class="cls-5" d="m52.5,36.82h-.13v.67h-.38v-1.88h.75c.43,0,.62.31.62.61,0,.27-.14.51-.46.57l.49.69h-.45l-.45-.67Zm-.13-.31h.3c.21,0,.3-.13.3-.28s-.1-.29-.27-.29h-.33v.57Z"/>
        <path class="cls-5" d="m53.63,36.94h.38c0,.14.13.25.31.25s.28-.09.28-.22c0-.1-.08-.18-.24-.23l-.23-.07c-.41-.11-.49-.36-.49-.53,0-.34.29-.56.65-.56s.63.22.63.57h-.38c0-.13-.09-.24-.26-.24-.15,0-.26.09-.26.22,0,.05.01.14.21.2l.21.06c.28.08.53.23.53.55,0,.37-.32.57-.67.57-.4,0-.68-.25-.68-.58Z"/>
        <path class="cls-5" d="m56.79,35.61v1.88h-.38v-.76h-.7v.76h-.38v-1.88h.38v.78h.7v-.78h.38Z"/>
        <path class="cls-5" d="m57.25,35.61h.38v1.88h-.38v-1.88Z"/>
        <path class="cls-5" d="m59.47,36.23c0,.31-.19.61-.61.61h-.39v.66h-.38v-1.88h.77c.43,0,.61.31.61.61Zm-.38,0c0-.14-.07-.28-.25-.28h-.37v.55h.37c.18,0,.25-.14.25-.28Z"/>
      </g>
      <polygon class="cls-2" points="80.05 63.88 9.71 63.88 19.6 45.93 70.16 45.93 80.05 63.88"/>
      <g>
        <path class="cls-5" d="m19.21,55.49h.38c0,.14.13.25.31.25s.28-.09.28-.22c0-.1-.08-.18-.24-.23l-.23-.07c-.41-.11-.49-.36-.49-.53,0-.34.29-.56.65-.56s.63.22.63.57h-.38c0-.13-.09-.24-.26-.24-.15,0-.26.09-.26.22,0,.05.01.14.21.2l.21.06c.28.08.53.23.53.55,0,.37-.32.57-.67.57-.4,0-.68-.25-.68-.58Z"/>
        <path class="cls-5" d="m20.9,54.16h.38v1.88h-.38v-1.88Z"/>
        <path class="cls-5" d="m22.83,56.05l-.43-.7-.43.7h-.45l.65-1.01-.59-.88h.46l.36.58.36-.58h.45l-.59.88.66,1.01h-.45Z"/>
        <path class="cls-5" d="m25.54,54.78c0,.31-.19.61-.61.61h-.39v.66h-.38v-1.88h.77c.43,0,.61.31.61.61Zm-.38,0c0-.14-.07-.28-.25-.28h-.37v.55h.37c.18,0,.25-.14.25-.28Z"/>
        <path class="cls-5" d="m26.35,55.37h-.13v.67h-.38v-1.88h.75c.43,0,.62.31.62.61,0,.27-.14.51-.46.57l.49.69h-.45l-.45-.67Zm-.13-.31h.3c.21,0,.3-.13.3-.28s-.1-.29-.27-.29h-.33v.57Z"/>
        <path class="cls-5" d="m28.6,55.59h-.7l-.15.45h-.4l.7-1.88h.41l.7,1.88h-.4l-.15-.45Zm-.11-.33l-.24-.71-.24.71h.48Z"/>
        <path class="cls-5" d="m29.22,55.1c0-.53.42-.96.96-.96.32,0,.6.15.77.39l-.29.21c-.11-.15-.26-.24-.46-.24-.34,0-.59.27-.59.6s.25.61.59.61c.2,0,.36-.09.47-.25l.29.21c-.17.24-.45.39-.77.39-.53,0-.96-.43-.96-.97Z"/>
        <path class="cls-5" d="m32.49,54.5h-.52v1.55h-.38v-1.55h-.52v-.34h1.42v.34Z"/>
        <path class="cls-5" d="m32.77,54.16h.38v1.88h-.38v-1.88Z"/>
        <path class="cls-5" d="m33.5,55.1c0-.53.42-.96.96-.96.32,0,.6.15.77.39l-.29.21c-.11-.15-.26-.24-.46-.24-.34,0-.59.27-.59.6s.25.61.59.61c.2,0,.36-.09.47-.25l.29.21c-.17.24-.45.39-.77.39-.53,0-.96-.43-.96-.97Z"/>
        <path class="cls-5" d="m36.73,55.71v.34h-1.2v-1.88h1.18v.34h-.8v.45h.7v.34h-.7v.42h.83Z"/>
        <path class="cls-5" d="m36.99,55.49h.38c0,.14.13.25.31.25s.28-.09.28-.22c0-.1-.08-.18-.24-.23l-.23-.07c-.41-.11-.49-.36-.49-.53,0-.34.29-.56.65-.56s.63.22.63.57h-.38c0-.13-.09-.24-.26-.24-.15,0-.26.09-.26.22,0,.05.01.14.21.2l.21.06c.28.08.53.23.53.55,0,.37-.32.57-.67.57-.4,0-.68-.25-.68-.58Z"/>
        <path class="cls-5" d="m39.22,55.11c0-.54.42-.97.96-.97s.96.43.96.97-.43.96-.96.96-.96-.43-.96-.96Zm1.53,0c0-.34-.24-.61-.58-.61s-.58.27-.58.61.24.61.58.61.58-.27.58-.61Z"/>
        <path class="cls-5" d="m41.86,54.5v.45h.62v.33h-.62v.76h-.38v-1.88h1.16v.34h-.78Z"/>
        <path class="cls-5" d="m45,54.16v1.88h-.38v-.76h-.7v.76h-.38v-1.88h.38v.78h.7v-.78h.38Z"/>
        <path class="cls-5" d="m45.46,54.16h.38v1.88h-.38v-1.88Z"/>
        <path class="cls-5" d="m46.18,55.11c0-.54.42-.97.96-.97.28,0,.53.12.7.3l-.28.24c-.11-.11-.26-.19-.42-.19-.33,0-.58.28-.58.61s.25.63.58.63c.25,0,.44-.12.49-.31,0-.01,0-.03.01-.05h-.53v-.31h.95c0,.7-.37,1.01-.92,1.01s-.96-.43-.96-.96Z"/>
        <path class="cls-5" d="m49.82,54.16v1.88h-.38v-.76h-.7v.76h-.38v-1.88h.38v.78h.7v-.78h.38Z"/>
        <path class="cls-5" d="m52.32,54.78c0,.31-.19.61-.61.61h-.39v.66h-.38v-1.88h.77c.43,0,.61.31.61.61Zm-.38,0c0-.14-.07-.28-.25-.28h-.37v.55h.37c.18,0,.25-.14.25-.28Z"/>
        <path class="cls-5" d="m53.83,55.71v.34h-1.2v-1.88h1.18v.34h-.8v.45h.7v.34h-.7v.42h.83Z"/>
        <path class="cls-5" d="m54.7,55.37h-.13v.67h-.38v-1.88h.75c.43,0,.62.31.62.61,0,.27-.14.51-.46.57l.49.69h-.45l-.45-.67Zm-.13-.31h.3c.21,0,.3-.13.3-.28s-.1-.29-.27-.29h-.33v.57Z"/>
        <path class="cls-5" d="m56.31,54.5v.45h.62v.33h-.62v.76h-.38v-1.88h1.16v.34h-.78Z"/>
        <path class="cls-5" d="m57.26,55.11c0-.54.42-.97.96-.97s.96.43.96.97-.43.96-.96.96-.96-.43-.96-.96Zm1.53,0c0-.34-.24-.61-.58-.61s-.58.27-.58.61.24.61.58.61.58-.27.58-.61Z"/>
        <path class="cls-5" d="m60.02,55.37h-.13v.67h-.38v-1.88h.75c.43,0,.62.31.62.61,0,.27-.14.51-.46.57l.49.69h-.45l-.45-.67Zm-.13-.31h.3c.21,0,.3-.13.3-.28s-.1-.29-.27-.29h-.33v.57Z"/>
        <path class="cls-5" d="m63.04,56.05l-.14-1.17-.46.95h-.3l-.46-.95-.14,1.17h-.39l.23-1.88h.32l.58,1.23.58-1.23h.33l.23,1.88h-.39Z"/>
        <path class="cls-5" d="m64.8,55.59h-.7l-.15.45h-.4l.7-1.88h.41l.7,1.88h-.4l-.15-.45Zm-.11-.33l-.24-.71-.24.71h.48Z"/>
        <path class="cls-5" d="m66.97,54.16v1.88h-.34l-.68-1.18v1.18h-.38v-1.88h.35l.67,1.17v-1.17h.38Z"/>
        <path class="cls-5" d="m67.32,55.1c0-.53.42-.96.96-.96.32,0,.6.15.77.39l-.29.21c-.11-.15-.26-.24-.46-.24-.34,0-.59.27-.59.6s.25.61.59.61c.2,0,.36-.09.47-.25l.29.21c-.17.24-.45.39-.77.39-.53,0-.96-.43-.96-.97Z"/>
        <path class="cls-5" d="m70.55,55.71v.34h-1.2v-1.88h1.18v.34h-.8v.45h.7v.34h-.7v.42h.83Z"/>
      </g>
      <polygon class="cls-1" points="89.77 81.51 0 81.51 9.28 64.66 80.48 64.66 89.77 81.51"/>
      <g>
        <path class="cls-5" d="m22.99,72.21h.74c.54,0,.86.41.86.95s-.31.94-.86.94h-.74v-1.88Zm.74,1.55c.31,0,.48-.28.48-.6s-.16-.61-.48-.61h-.36v1.21h.36Z"/>
        <path class="cls-5" d="m24.82,73.15c0-.54.42-.97.96-.97s.96.43.96.97-.43.96-.96.96-.96-.43-.96-.96Zm1.53,0c0-.34-.24-.61-.58-.61s-.58.27-.58.61.24.61.58.61.58-.27.58-.61Z"/>
        <path class="cls-5" d="m28.86,74.09l-.14-1.17-.46.95h-.3l-.46-.95-.14,1.17h-.39l.23-1.88h.32l.58,1.23.58-1.23h.33l.23,1.88h-.39Z"/>
        <path class="cls-5" d="m30.62,73.64h-.7l-.15.45h-.4l.7-1.88h.41l.7,1.88h-.4l-.15-.45Zm-.11-.33l-.24-.71-.24.71h.48Z"/>
        <path class="cls-5" d="m31.39,72.21h.38v1.88h-.38v-1.88Z"/>
        <path class="cls-5" d="m33.63,72.21v1.88h-.34l-.68-1.18v1.18h-.38v-1.88h.35l.67,1.17v-1.17h.38Z"/>
        <path class="cls-5" d="m33.98,73.54h.38c0,.14.13.25.31.25s.28-.09.28-.22c0-.1-.08-.18-.24-.23l-.23-.07c-.41-.11-.49-.36-.49-.53,0-.34.29-.56.65-.56s.63.22.63.57h-.38c0-.13-.09-.24-.26-.24-.15,0-.26.09-.26.22,0,.05.01.14.21.2l.21.06c.28.08.53.23.53.55,0,.37-.32.57-.67.57-.4,0-.68-.25-.68-.58Z"/>
        <path class="cls-5" d="m36.22,73.15c0-.54.42-.97.96-.97s.96.43.96.97-.43.96-.96.96-.96-.43-.96-.96Zm1.53,0c0-.34-.24-.61-.58-.61s-.58.27-.58.61.24.61.58.61.58-.27.58-.61Z"/>
        <path class="cls-5" d="m38.86,72.55v.45h.62v.33h-.62v.76h-.38v-1.88h1.16v.34h-.78Z"/>
        <path class="cls-5" d="m42,72.21v1.88h-.38v-.76h-.7v.76h-.38v-1.88h.38v.78h.7v-.78h.38Z"/>
        <path class="cls-5" d="m42.44,73.42v-1.21h.38v1.19c0,.25.16.36.34.36s.34-.1.34-.36v-1.19h.38v1.21c0,.43-.34.7-.72.7s-.72-.26-.72-.7Z"/>
        <path class="cls-5" d="m46.1,74.09l-.14-1.17-.46.95h-.3l-.46-.95-.14,1.17h-.39l.23-1.88h.32l.58,1.23.58-1.23h.33l.23,1.88h-.39Z"/>
        <path class="cls-5" d="m47.86,73.64h-.7l-.15.45h-.4l.7-1.88h.41l.7,1.88h-.4l-.15-.45Zm-.11-.33l-.24-.71-.24.71h.48Z"/>
        <path class="cls-5" d="m50.03,72.21v1.88h-.34l-.68-1.18v1.18h-.38v-1.88h.35l.67,1.17v-1.17h.38Z"/>
        <path class="cls-5" d="m52.35,73.76v.34h-1.2v-1.88h1.18v.34h-.8v.45h.7v.34h-.7v.42h.83Z"/>
        <path class="cls-5" d="m53.8,74.09l-.43-.7-.43.7h-.45l.65-1.01-.59-.88h.46l.36.58.36-.58h.45l-.59.88.66,1.01h-.45Z"/>
        <path class="cls-5" d="m55.87,72.83c0,.31-.19.61-.61.61h-.39v.66h-.38v-1.88h.77c.43,0,.61.31.61.61Zm-.38,0c0-.14-.07-.28-.25-.28h-.37v.55h.37c.18,0,.25-.14.25-.28Z"/>
        <path class="cls-5" d="m57.38,73.76v.34h-1.2v-1.88h1.18v.34h-.8v.45h.7v.34h-.7v.42h.83Z"/>
        <path class="cls-5" d="m58.25,73.42h-.13v.67h-.38v-1.88h.75c.43,0,.62.31.62.61,0,.27-.14.51-.46.57l.49.69h-.45l-.45-.67Zm-.13-.31h.3c.21,0,.3-.13.3-.28s-.1-.29-.27-.29h-.33v.57Z"/>
        <path class="cls-5" d="m59.48,72.21h.38v1.88h-.38v-1.88Z"/>
        <path class="cls-5" d="m61.52,73.76v.34h-1.2v-1.88h1.18v.34h-.8v.45h.7v.34h-.7v.42h.83Z"/>
        <path class="cls-5" d="m63.29,72.21v1.88h-.34l-.68-1.18v1.18h-.38v-1.88h.35l.67,1.17v-1.17h.38Z"/>
        <path class="cls-5" d="m63.64,73.15c0-.53.42-.96.96-.96.32,0,.6.15.77.39l-.29.21c-.11-.15-.26-.24-.46-.24-.34,0-.59.27-.59.6s.25.61.59.61c.2,0,.36-.09.47-.25l.29.21c-.17.23-.45.39-.77.39-.53,0-.96-.43-.96-.97Z"/>
        <path class="cls-5" d="m66.87,73.76v.34h-1.2v-1.88h1.18v.34h-.8v.45h.7v.34h-.7v.42h.83Z"/>
      </g>
      <g>
        <path class="cls-6" d="m91.86,81.69c-.1,0-.19-.08-.19-.18s.07-.18.17-.18h.02c.1,0,.18.08.18.18s-.08.18-.18.18Z"/>
        <path class="cls-6" d="m93.7,81.69h-.04c-.1,0-.18-.08-.18-.18s.08-.18.18-.18h.04c.1,0,.18.08.18.18s-.08.18-.18.18Zm-.92,0h-.04c-.1,0-.18-.08-.18-.18s.08-.18.18-.18h.04c.1,0,.18.08.18.18s-.08.18-.18.18Z"/>
        <path class="cls-6" d="m96.46,81.69h-.04c-.1,0-.18-.08-.18-.18s.08-.18.18-.18h.04c.1,0,.18.08.18.18s-.08.18-.18.18Zm-.92,0h-.04c-.1,0-.18-.08-.18-.18s.08-.18.18-.18h.04c.1,0,.18.08.18.18s-.08.18-.18.18Zm-.92,0h-.04c-.1,0-.18-.08-.18-.18s.08-.18.18-.18h.04c.1,0,.18.08.18.18s-.08.18-.18.18Z"/>
        <path class="cls-6" d="m97.35,81.69c-.1,0-.19-.08-.19-.18,0-.08.04-.15.11-.17.02-.01.05-.02.08-.02.1,0,.18.07.18.17v.18l-.18.02Z"/>
        <path class="cls-6" d="m97.35,80.94c-.1,0-.18-.08-.18-.18v-.04c0-.1.08-.18.18-.18s.18.08.18.18v.04c0,.1-.08.18-.18.18Zm0-.77c-.1,0-.18-.08-.18-.18v-.04c0-.1.08-.18.18-.18s.18.08.18.18v.04c0,.1-.08.18-.18.18Z"/>
        <path class="cls-6" d="m97.35,79.39c-.1,0-.18-.08-.18-.18v-.04c0-.1.08-.18.18-.18s.18.08.18.18v.04c0,.1-.08.18-.18.18Zm0-.77c-.1,0-.18-.08-.18-.18v-.04c0-.1.08-.18.18-.18s.18.08.18.18v.04c0,.1-.08.18-.18.18Zm0-.77c-.1,0-.18-.08-.18-.18v-.04c0-.1.08-.18.18-.18s.18.08.18.18v.04c0,.1-.08.18-.18.18Zm0-.77c-.1,0-.18-.08-.18-.18v-.04c0-.1.08-.18.18-.18s.18.08.18.18v.04c0,.1-.08.18-.18.18Zm0-.77c-.1,0-.18-.08-.18-.18v-.04c0-.1.08-.18.18-.18s.18.08.18.18v.04c0,.1-.08.18-.18.18Zm0-.77c-.1,0-.18-.08-.18-.18v-.04c0-.1.08-.18.18-.18s.18.08.18.18v.04c0,.1-.08.18-.18.18Zm0-.77c-.1,0-.18-.08-.18-.18v-.04c0-.1.08-.18.18-.18s.18.08.18.18v.04c0,.1-.08.18-.18.18Zm0-.77c-.1,0-.18-.08-.18-.18v-.04c0-.1.08-.18.18-.18s.18.08.18.18v.04c0,.1-.08.18-.18.18Zm0-.77c-.1,0-.18-.08-.18-.18v-.04c0-.1.08-.18.18-.18s.18.08.18.18v.04c0,.1-.08.18-.18.18Zm0-.77c-.1,0-.18-.08-.18-.18v-.04c0-.1.08-.18.18-.18s.18.08.18.18v.04c0,.1-.08.18-.18.18Zm0-.77c-.1,0-.18-.08-.18-.18v-.04c0-.1.08-.18.18-.18s.18.08.18.18v.04c0,.1-.08.18-.18.18Zm0-.77c-.1,0-.18-.08-.18-.18v-.04c0-.1.08-.18.18-.18s.18.08.18.18v.04c0,.1-.08.18-.18.18Zm0-.77c-.1,0-.18-.08-.18-.18v-.04c0-.1.08-.18.18-.18s.18.08.18.18v.04c0,.1-.08.18-.18.18Zm0-.77c-.1,0-.18-.08-.18-.18v-.04c0-.1.08-.18.18-.18s.18.08.18.18v.04c0,.1-.08.18-.18.18Zm0-.77c-.1,0-.18-.08-.18-.18v-.04c0-.1.08-.18.18-.18s.18.08.18.18v.04c0,.1-.08.18-.18.18Zm0-.77c-.1,0-.18-.08-.18-.18v-.04c0-.1.08-.18.18-.18s.18.08.18.18v.04c0,.1-.08.18-.18.18Zm0-.77c-.1,0-.18-.08-.18-.18v-.04c0-.1.08-.18.18-.18s.18.08.18.18v.04c0,.1-.08.18-.18.18Zm0-.77c-.1,0-.18-.08-.18-.18v-.04c0-.1.08-.18.18-.18s.18.08.18.18v.04c0,.1-.08.18-.18.18Zm0-.77c-.1,0-.18-.08-.18-.18v-.04c0-.1.08-.18.18-.18s.18.08.18.18v.04c0,.1-.08.18-.18.18Zm0-.77c-.1,0-.18-.08-.18-.18v-.04c0-.1.08-.18.18-.18s.18.08.18.18v.04c0,.1-.08.18-.18.18Zm0-.77c-.1,0-.18-.08-.18-.18v-.04c0-.1.08-.18.18-.18s.18.08.18.18v.04c0,.1-.08.18-.18.18Zm0-.77c-.1,0-.18-.08-.18-.18v-.04c0-.1.08-.18.18-.18s.18.08.18.18v.04c0,.1-.08.18-.18.18Zm0-.77c-.1,0-.18-.08-.18-.18v-.04c0-.1.08-.18.18-.18s.18.08.18.18v.04c0,.1-.08.18-.18.18Zm0-.77c-.1,0-.18-.08-.18-.18v-.04c0-.1.08-.18.18-.18s.18.08.18.18v.04c0,.1-.08.18-.18.18Zm0-.77c-.1,0-.18-.08-.18-.18v-.04c0-.1.08-.18.18-.18s.18.08.18.18v.04c0,.1-.08.18-.18.18Zm0-.77c-.1,0-.18-.08-.18-.18v-.04c0-.1.08-.18.18-.18s.18.08.18.18v.04c0,.1-.08.18-.18.18Zm0-.77c-.1,0-.18-.08-.18-.18v-.04c0-.1.08-.18.18-.18s.18.08.18.18v.04c0,.1-.08.18-.18.18Zm0-.77c-.1,0-.18-.08-.18-.18v-.04c0-.1.08-.18.18-.18s.18.08.18.18v.04c0,.1-.08.18-.18.18Zm0-.77c-.1,0-.18-.08-.18-.18v-.04c0-.1.08-.18.18-.18s.18.08.18.18v.04c0,.1-.08.18-.18.18Zm0-.77c-.1,0-.18-.08-.18-.18v-.04c0-.1.08-.18.18-.18s.18.08.18.18v.04c0,.1-.08.18-.18.18Zm0-.77c-.1,0-.18-.08-.18-.18v-.04c0-.1.08-.18.18-.18s.18.08.18.18v.04c0,.1-.08.18-.18.18Zm0-.77c-.1,0-.18-.08-.18-.18v-.04c0-.1.08-.18.18-.18s.18.08.18.18v.04c0,.1-.08.18-.18.18Zm0-.77c-.1,0-.18-.08-.18-.18v-.04c0-.1.08-.18.18-.18s.18.08.18.18v.04c0,.1-.08.18-.18.18Zm0-.77c-.1,0-.18-.08-.18-.18v-.04c0-.1.08-.18.18-.18s.18.08.18.18v.04c0,.1-.08.18-.18.18Zm0-.77c-.1,0-.18-.08-.18-.18v-.04c0-.1.08-.18.18-.18s.18.08.18.18v.04c0,.1-.08.18-.18.18Zm0-.77c-.1,0-.18-.08-.18-.18v-.04c0-.1.08-.18.18-.18s.18.08.18.18v.04c0,.1-.08.18-.18.18Zm0-.77c-.1,0-.18-.08-.18-.18v-.04c0-.1.08-.18.18-.18s.18.08.18.18v.04c0,.1-.08.18-.18.18Zm0-.77c-.1,0-.18-.08-.18-.18v-.04c0-.1.08-.18.18-.18s.18.08.18.18v.04c0,.1-.08.18-.18.18Zm0-.77c-.1,0-.18-.08-.18-.18v-.04c0-.1.08-.18.18-.18s.18.08.18.18v.04c0,.1-.08.18-.18.18Zm0-.77c-.1,0-.18-.08-.18-.18v-.04c0-.1.08-.18.18-.18s.18.08.18.18v.04c0,.1-.08.18-.18.18Zm0-.77c-.1,0-.18-.08-.18-.18v-.04c0-.1.08-.18.18-.18s.18.08.18.18v.04c0,.1-.08.18-.18.18Zm0-.77c-.1,0-.18-.08-.18-.18v-.04c0-.1.08-.18.18-.18s.18.08.18.18v.04c0,.1-.08.18-.18.18Zm0-.77c-.1,0-.18-.08-.18-.18v-.04c0-.1.08-.18.18-.18s.18.08.18.18v.04c0,.1-.08.18-.18.18Zm0-.77c-.1,0-.18-.08-.18-.18v-.04c0-.1.08-.18.18-.18s.18.08.18.18v.04c0,.1-.08.18-.18.18Zm0-.77c-.1,0-.18-.08-.18-.18v-.04c0-.1.08-.18.18-.18s.18.08.18.18v.04c0,.1-.08.18-.18.18Zm0-.77c-.1,0-.18-.08-.18-.18v-.04c0-.1.08-.18.18-.18s.18.08.18.18v.04c0,.1-.08.18-.18.18Zm0-.77c-.1,0-.18-.08-.18-.18v-.04c0-.1.08-.18.18-.18s.18.08.18.18v.04c0,.1-.08.18-.18.18Zm0-.77c-.1,0-.18-.08-.18-.18v-.04c0-.1.08-.18.18-.18s.18.08.18.18v.04c0,.1-.08.18-.18.18Zm0-.77c-.1,0-.18-.08-.18-.18v-.04c0-.1.08-.18.18-.18s.18.08.18.18v.04c0,.1-.08.18-.18.18Zm0-.77c-.1,0-.18-.08-.18-.18v-.04c0-.1.08-.18.18-.18s.18.08.18.18v.04c0,.1-.08.18-.18.18Zm0-.77c-.1,0-.18-.08-.18-.18v-.04c0-.1.08-.18.18-.18s.18.08.18.18v.04c0,.1-.08.18-.18.18Zm0-.77c-.1,0-.18-.08-.18-.18v-.04c0-.1.08-.18.18-.18s.18.08.18.18v.04c0,.1-.08.18-.18.18Zm0-.77c-.1,0-.18-.08-.18-.18v-.04c0-.1.08-.18.18-.18s.18.08.18.18v.04c0,.1-.08.18-.18.18Zm0-.77c-.1,0-.18-.08-.18-.18v-.04c0-.1.08-.18.18-.18s.18.08.18.18v.04c0,.1-.08.18-.18.18Zm0-.77c-.1,0-.18-.08-.18-.18v-.04c0-.1.08-.18.18-.18s.18.08.18.18v.04c0,.1-.08.18-.18.18Zm0-.77c-.1,0-.18-.08-.18-.18v-.04c0-.1.08-.18.18-.18s.18.08.18.18v.04c0,.1-.08.18-.18.18Zm0-.77c-.1,0-.18-.08-.18-.18v-.04c0-.1.08-.18.18-.18s.18.08.18.18v.04c0,.1-.08.18-.18.18Zm0-.77c-.1,0-.18-.08-.18-.18v-.04c0-.1.08-.18.18-.18s.18.08.18.18v.04c0,.1-.08.18-.18.18Zm0-.77c-.1,0-.18-.08-.18-.18v-.04c0-.1.08-.18.18-.18s.18.08.18.18v.04c0,.1-.08.18-.18.18Zm0-.77c-.1,0-.18-.08-.18-.18v-.04c0-.1.08-.18.18-.18s.18.08.18.18v.04c0,.1-.08.18-.18.18Zm0-.77c-.1,0-.18-.08-.18-.18v-.04c0-.1.08-.18.18-.18s.18.08.18.18v.04c0,.1-.08.18-.18.18Zm0-.77c-.1,0-.18-.08-.18-.18v-.04c0-.1.08-.18.18-.18s.18.08.18.18v.04c0,.1-.08.18-.18.18Zm0-.77c-.1,0-.18-.08-.18-.18v-.04c0-.1.08-.18.18-.18s.18.08.18.18v.04c0,.1-.08.18-.18.18Zm0-.77c-.1,0-.18-.08-.18-.18v-.04c0-.1.08-.18.18-.18s.18.08.18.18v.04c0,.1-.08.18-.18.18Zm0-.77c-.1,0-.18-.08-.18-.18v-.04c0-.1.08-.18.18-.18s.18.08.18.18v.04c0,.1-.08.18-.18.18Zm0-.77c-.1,0-.18-.08-.18-.18v-.04c0-.1.08-.18.18-.18s.18.08.18.18v.04c0,.1-.08.18-.18.18Zm0-.77c-.1,0-.18-.08-.18-.18v-.04c0-.1.08-.18.18-.18s.18.08.18.18v.04c0,.1-.08.18-.18.18Zm0-.77c-.1,0-.18-.08-.18-.18v-.04c0-.1.08-.18.18-.18s.18.08.18.18v.04c0,.1-.08.18-.18.18Zm0-.77c-.1,0-.18-.08-.18-.18v-.04c0-.1.08-.18.18-.18s.18.08.18.18v.04c0,.1-.08.18-.18.18Zm0-.77c-.1,0-.18-.08-.18-.18v-.04c0-.1.08-.18.18-.18s.18.08.18.18v.04c0,.1-.08.18-.18.18Zm0-.77c-.1,0-.18-.08-.18-.18v-.04c0-.1.08-.18.18-.18s.18.08.18.18v.04c0,.1-.08.18-.18.18Zm0-.77c-.1,0-.18-.08-.18-.18v-.04c0-.1.08-.18.18-.18s.18.08.18.18v.04c0,.1-.08.18-.18.18Zm0-.77c-.1,0-.18-.08-.18-.18v-.04c0-.1.08-.18.18-.18s.18.08.18.18v.04c0,.1-.08.18-.18.18Zm0-.77c-.1,0-.18-.08-.18-.18v-.04c0-.1.08-.18.18-.18s.18.08.18.18v.04c0,.1-.08.18-.18.18Zm0-.77c-.1,0-.18-.08-.18-.18v-.04c0-.1.08-.18.18-.18s.18.08.18.18v.04c0,.1-.08.18-.18.18Zm0-.77c-.1,0-.18-.08-.18-.18v-.04c0-.1.08-.18.18-.18s.18.08.18.18v.04c0,.1-.08.18-.18.18Zm0-.77c-.1,0-.18-.08-.18-.18v-.04c0-.1.08-.18.18-.18s.18.08.18.18v.04c0,.1-.08.18-.18.18Zm0-.77c-.1,0-.18-.08-.18-.18v-.04c0-.1.08-.18.18-.18s.18.08.18.18v.04c0,.1-.08.18-.18.18Zm0-.77c-.1,0-.18-.08-.18-.18v-.04c0-.1.08-.18.18-.18s.18.08.18.18v.04c0,.1-.08.18-.18.18Zm0-.77c-.1,0-.18-.08-.18-.18v-.04c0-.1.08-.18.18-.18s.18.08.18.18v.04c0,.1-.08.18-.18.18Zm0-.77c-.1,0-.18-.08-.18-.18v-.04c0-.1.08-.18.18-.18s.18.08.18.18v.04c0,.1-.08.18-.18.18Zm0-.77c-.1,0-.18-.08-.18-.18v-.04c0-.1.08-.18.18-.18s.18.08.18.18v.04c0,.1-.08.18-.18.18Zm0-.77c-.1,0-.18-.08-.18-.18v-.04c0-.1.08-.18.18-.18s.18.08.18.18v.04c0,.1-.08.18-.18.18Zm0-.77c-.1,0-.18-.08-.18-.18v-.04c0-.1.08-.18.18-.18s.18.08.18.18v.04c0,.1-.08.18-.18.18Zm0-.77c-.1,0-.18-.08-.18-.18v-.04c0-.1.08-.18.18-.18s.18.08.18.18v.04c0,.1-.08.18-.18.18Zm0-.77c-.1,0-.18-.08-.18-.18v-.04c0-.1.08-.18.18-.18s.18.08.18.18v.04c0,.1-.08.18-.18.18Zm0-.77c-.1,0-.18-.08-.18-.18v-.04c0-.1.08-.18.18-.18s.18.08.18.18v.04c0,.1-.08.18-.18.18Zm0-.77c-.1,0-.18-.08-.18-.18v-.04c0-.1.08-.18.18-.18s.18.08.18.18v.04c0,.1-.08.18-.18.18Zm0-.77c-.1,0-.18-.08-.18-.18v-.04c0-.1.08-.18.18-.18s.18.08.18.18v.04c0,.1-.08.18-.18.18Zm0-.77c-.1,0-.18-.08-.18-.18v-.04c0-.1.08-.18.18-.18s.18.08.18.18v.04c0,.1-.08.18-.18.18Zm0-.77c-.1,0-.18-.08-.18-.18v-.04c0-.1.08-.18.18-.18s.18.08.18.18v.04c0,.1-.08.18-.18.18Zm0-.77c-.1,0-.18-.08-.18-.18v-.04c0-.1.08-.18.18-.18s.18.08.18.18v.04c0,.1-.08.18-.18.18Zm0-.77c-.1,0-.18-.08-.18-.18v-.04c0-.1.08-.18.18-.18s.18.08.18.18v.04c0,.1-.08.18-.18.18Zm0-.77c-.1,0-.18-.08-.18-.18v-.04c0-.1.08-.18.18-.18s.18.08.18.18v.04c0,.1-.08.18-.18.18Zm0-.77c-.1,0-.18-.08-.18-.18v-.04c0-.1.08-.18.18-.18s.18.08.18.18v.04c0,.1-.08.18-.18.18Zm0-.77c-.1,0-.18-.08-.18-.18v-.04c0-.1.08-.18.18-.18s.18.08.18.18v.04c0,.1-.08.18-.18.18Zm0-.77c-.1,0-.18-.08-.18-.18v-.04c0-.1.08-.18.18-.18s.18.08.18.18v.04c0,.1-.08.18-.18.18Zm0-.77c-.1,0-.18-.08-.18-.18v-.04c0-.1.08-.18.18-.18s.18.08.18.18v.04c0,.1-.08.18-.18.18Zm0-.77c-.1,0-.18-.08-.18-.18v-.04c0-.1.08-.18.18-.18s.18.08.18.18v.04c0,.1-.08.18-.18.18Zm0-.77c-.1,0-.18-.08-.18-.18v-.04c0-.1.08-.18.18-.18s.18.08.18.18v.04c0,.1-.08.18-.18.18Zm0-.77c-.1,0-.18-.08-.18-.18v-.04c0-.1.08-.18.18-.18s.18.08.18.18v.04c0,.1-.08.18-.18.18Zm0-.77c-.1,0-.18-.08-.18-.18v-.04c0-.1.08-.18.18-.18s.18.08.18.18v.04c0,.1-.08.18-.18.18Z"/>
        <path class="cls-6" d="m97.35.38c-.08,0-.15-.04-.17-.11-.01-.02-.02-.05-.02-.08,0-.1.07-.18.17-.18h.18l.02.18c0,.1-.08.19-.18.19Z"/>
        <path class="cls-6" d="m96.6.37h-.04c-.1,0-.18-.08-.18-.18s.08-.18.18-.18h.04c.1,0,.18.08.18.18s-.08.18-.18.18Zm-.77,0h-.04c-.1,0-.18-.08-.18-.18s.08-.18.18-.18h.04c.1,0,.18.08.18.18s-.08.18-.18.18Z"/>
        <path class="cls-6" d="m95.06.37h-.04c-.1,0-.18-.08-.18-.18s.08-.18.18-.18h.04c.1,0,.18.08.18.18s-.08.18-.18.18Zm-.77,0h-.04c-.1,0-.18-.08-.18-.18s.08-.18.18-.18h.04c.1,0,.18.08.18.18s-.08.18-.18.18Zm-.77,0h-.04c-.1,0-.18-.08-.18-.18s.08-.18.18-.18h.04c.1,0,.18.08.18.18s-.08.18-.18.18Zm-.77,0h-.04c-.1,0-.18-.08-.18-.18s.08-.18.18-.18h.04c.1,0,.18.08.18.18s-.08.18-.18.18Zm-.77,0h-.04c-.1,0-.18-.08-.18-.18s.08-.18.18-.18h.04c.1,0,.18.08.18.18s-.08.18-.18.18Zm-.77,0h-.04c-.1,0-.18-.08-.18-.18s.08-.18.18-.18h.04c.1,0,.18.08.18.18s-.08.18-.18.18Zm-.77,0h-.04c-.1,0-.18-.08-.18-.18s.08-.18.18-.18h.04c.1,0,.18.08.18.18s-.08.18-.18.18Zm-.77,0h-.04c-.1,0-.18-.08-.18-.18s.08-.18.18-.18h.04c.1,0,.18.08.18.18s-.08.18-.18.18Zm-.77,0h-.04c-.1,0-.18-.08-.18-.18s.08-.18.18-.18h.04c.1,0,.18.08.18.18s-.08.18-.18.18Zm-.77,0h-.04c-.1,0-.18-.08-.18-.18s.08-.18.18-.18h.04c.1,0,.18.08.18.18s-.08.18-.18.18Zm-.77,0h-.04c-.1,0-.18-.08-.18-.18s.08-.18.18-.18h.04c.1,0,.18.08.18.18s-.08.18-.18.18Zm-.77,0h-.04c-.1,0-.18-.08-.18-.18s.08-.18.18-.18h.04c.1,0,.18.08.18.18s-.08.18-.18.18Zm-.77,0h-.04c-.1,0-.18-.08-.18-.18s.08-.18.18-.18h.04c.1,0,.18.08.18.18s-.08.18-.18.18Zm-.77,0h-.04c-.1,0-.18-.08-.18-.18s.08-.18.18-.18h.04c.1,0,.18.08.18.18s-.08.18-.18.18Zm-.77,0h-.04c-.1,0-.18-.08-.18-.18s.08-.18.18-.18h.04c.1,0,.18.08.18.18s-.08.18-.18.18Zm-.77,0h-.04c-.1,0-.18-.08-.18-.18s.08-.18.18-.18h.04c.1,0,.18.08.18.18s-.08.18-.18.18Zm-.77,0h-.04c-.1,0-.18-.08-.18-.18s.08-.18.18-.18h.04c.1,0,.18.08.18.18s-.08.18-.18.18Zm-.77,0h-.04c-.1,0-.18-.08-.18-.18s.08-.18.18-.18h.04c.1,0,.18.08.18.18s-.08.18-.18.18Zm-.77,0h-.04c-.1,0-.18-.08-.18-.18s.08-.18.18-.18h.04c.1,0,.18.08.18.18s-.08.18-.18.18Zm-.77,0h-.04c-.1,0-.18-.08-.18-.18s.08-.18.18-.18h.04c.1,0,.18.08.18.18s-.08.18-.18.18Zm-.77,0h-.04c-.1,0-.18-.08-.18-.18s.08-.18.18-.18h.04c.1,0,.18.08.18.18s-.08.18-.18.18Zm-.77,0h-.04c-.1,0-.18-.08-.18-.18s.08-.18.18-.18h.04c.1,0,.18.08.18.18s-.08.18-.18.18Zm-.77,0h-.04c-.1,0-.18-.08-.18-.18s.08-.18.18-.18h.04c.1,0,.18.08.18.18s-.08.18-.18.18Zm-.77,0h-.04c-.1,0-.18-.08-.18-.18s.08-.18.18-.18h.04c.1,0,.18.08.18.18s-.08.18-.18.18Zm-.77,0h-.04c-.1,0-.18-.08-.18-.18s.08-.18.18-.18h.04c.1,0,.18.08.18.18s-.08.18-.18.18Zm-.77,0h-.04c-.1,0-.18-.08-.18-.18s.08-.18.18-.18h.04c.1,0,.18.08.18.18s-.08.18-.18.18Zm-.77,0h-.04c-.1,0-.18-.08-.18-.18s.08-.18.18-.18h.04c.1,0,.18.08.18.18s-.08.18-.18.18Zm-.77,0h-.04c-.1,0-.18-.08-.18-.18s.08-.18.18-.18h.04c.1,0,.18.08.18.18s-.08.18-.18.18Zm-.77,0h-.04c-.1,0-.18-.08-.18-.18s.08-.18.18-.18h.04c.1,0,.18.08.18.18s-.08.18-.18.18Zm-.77,0h-.04c-.1,0-.18-.08-.18-.18s.08-.18.18-.18h.04c.1,0,.18.08.18.18s-.08.18-.18.18Zm-.77,0h-.04c-.1,0-.18-.08-.18-.18s.08-.18.18-.18h.04c.1,0,.18.08.18.18s-.08.18-.18.18Zm-.77,0h-.04c-.1,0-.18-.08-.18-.18s.08-.18.18-.18h.04c.1,0,.18.08.18.18s-.08.18-.18.18Zm-.77,0h-.04c-.1,0-.18-.08-.18-.18s.08-.18.18-.18h.04c.1,0,.18.08.18.18s-.08.18-.18.18Zm-.77,0h-.04c-.1,0-.18-.08-.18-.18s.08-.18.18-.18h.04c.1,0,.18.08.18.18s-.08.18-.18.18Zm-.77,0h-.04c-.1,0-.18-.08-.18-.18s.08-.18.18-.18h.04c.1,0,.18.08.18.18s-.08.18-.18.18Zm-.77,0h-.04c-.1,0-.18-.08-.18-.18s.08-.18.18-.18h.04c.1,0,.18.08.18.18s-.08.18-.18.18Zm-.77,0h-.04c-.1,0-.18-.08-.18-.18s.08-.18.18-.18h.04c.1,0,.18.08.18.18s-.08.18-.18.18Zm-.77,0h-.04c-.1,0-.18-.08-.18-.18s.08-.18.18-.18h.04c.1,0,.18.08.18.18s-.08.18-.18.18Zm-.77,0h-.04c-.1,0-.18-.08-.18-.18s.08-.18.18-.18h.04c.1,0,.18.08.18.18s-.08.18-.18.18Zm-.77,0h-.04c-.1,0-.18-.08-.18-.18s.08-.18.18-.18h.04c.1,0,.18.08.18.18s-.08.18-.18.18Zm-.77,0h-.04c-.1,0-.18-.08-.18-.18s.08-.18.18-.18h.04c.1,0,.18.08.18.18s-.08.18-.18.18Zm-.77,0h-.04c-.1,0-.18-.08-.18-.18s.08-.18.18-.18h.04c.1,0,.18.08.18.18s-.08.18-.18.18Zm-.77,0h-.04c-.1,0-.18-.08-.18-.18s.08-.18.18-.18h.04c.1,0,.18.08.18.18s-.08.18-.18.18Zm-.77,0h-.04c-.1,0-.18-.08-.18-.18s.08-.18.18-.18h.04c.1,0,.18.08.18.18s-.08.18-.18.18Zm-.77,0h-.04c-.1,0-.18-.08-.18-.18s.08-.18.18-.18h.04c.1,0,.18.08.18.18s-.08.18-.18.18Zm-.77,0h-.04c-.1,0-.18-.08-.18-.18s.08-.18.18-.18h.04c.1,0,.18.08.18.18s-.08.18-.18.18Zm-.77,0h-.04c-.1,0-.18-.08-.18-.18s.08-.18.18-.18h.04c.1,0,.18.08.18.18s-.08.18-.18.18Zm-.77,0h-.04c-.1,0-.18-.08-.18-.18s.08-.18.18-.18h.04c.1,0,.18.08.18.18s-.08.18-.18.18Zm-.77,0h-.04c-.1,0-.18-.08-.18-.18s.08-.18.18-.18h.04c.1,0,.18.08.18.18s-.08.18-.18.18Zm-.77,0h-.04c-.1,0-.18-.08-.18-.18s.08-.18.18-.18h.04c.1,0,.18.08.18.18s-.08.18-.18.18Zm-.77,0h-.04c-.1,0-.18-.08-.18-.18s.08-.18.18-.18h.04c.1,0,.18.08.18.18s-.08.18-.18.18Zm-.77,0h-.04c-.1,0-.18-.08-.18-.18s.08-.18.18-.18h.04c.1,0,.18.08.18.18s-.08.18-.18.18Zm-.77,0h-.04c-.1,0-.18-.08-.18-.18s.08-.18.18-.18h.04c.1,0,.18.08.18.18s-.08.18-.18.18Zm-.77,0h-.04c-.1,0-.18-.08-.18-.18s.08-.18.18-.18h.04c.1,0,.18.08.18.18s-.08.18-.18.18Zm-.77,0h-.04c-.1,0-.18-.08-.18-.18s.08-.18.18-.18h.04c.1,0,.18.08.18.18s-.08.18-.18.18Zm-.77,0h-.04c-.1,0-.18-.08-.18-.18s.08-.18.18-.18h.04c.1,0,.18.08.18.18s-.08.18-.18.18Zm-.77,0h-.04c-.1,0-.18-.08-.18-.18s.08-.18.18-.18h.04c.1,0,.18.08.18.18s-.08.18-.18.18Zm-.77,0h-.04c-.1,0-.18-.08-.18-.18s.08-.18.18-.18h.04c.1,0,.18.08.18.18s-.08.18-.18.18Zm-.77,0h-.04c-.1,0-.18-.08-.18-.18s.08-.18.18-.18h.04c.1,0,.18.08.18.18s-.08.18-.18.18Zm-.77,0h-.04c-.1,0-.18-.08-.18-.18s.08-.18.18-.18h.04c.1,0,.18.08.18.18s-.08.18-.18.18Zm-.77,0h-.04c-.1,0-.18-.08-.18-.18s.08-.18.18-.18h.04c.1,0,.18.08.18.18s-.08.18-.18.18Zm-.77,0h-.04c-.1,0-.18-.08-.18-.18s.08-.18.18-.18h.04c.1,0,.18.08.18.18s-.08.18-.18.18Zm-.77,0h-.04c-.1,0-.18-.08-.18-.18s.08-.18.18-.18h.04c.1,0,.18.08.18.18s-.08.18-.18.18Z"/>
        <path class="cls-6" d="m46.6.37h-.02c-.1,0-.18-.08-.18-.18s.08-.18.18-.18.19.08.19.18-.07.18-.17.18Z"/>
      </g>
      <path class="cls-6" d="m96.65,26.61h-.04c-.1,0-.18-.08-.18-.18s.08-.18.18-.18h.04c.1,0,.18.08.18.18s-.08.18-.18.18Zm-.77,0h-.04c-.1,0-.18-.08-.18-.18s.08-.18.18-.18h.04c.1,0,.18.08.18.18s-.08.18-.18.18Zm-.77,0h-.04c-.1,0-.18-.08-.18-.18s.08-.18.18-.18h.04c.1,0,.18.08.18.18s-.08.18-.18.18Zm-.77,0h-.04c-.1,0-.18-.08-.18-.18s.08-.18.18-.18h.04c.1,0,.18.08.18.18s-.08.18-.18.18Zm-.77,0h-.04c-.1,0-.18-.08-.18-.18s.08-.18.18-.18h.04c.1,0,.18.08.18.18s-.08.18-.18.18Zm-.77,0h-.04c-.1,0-.18-.08-.18-.18s.08-.18.18-.18h.04c.1,0,.18.08.18.18s-.08.18-.18.18Zm-.77,0h-.04c-.1,0-.18-.08-.18-.18s.08-.18.18-.18h.04c.1,0,.18.08.18.18s-.08.18-.18.18Zm-.77,0h-.04c-.1,0-.18-.08-.18-.18s.08-.18.18-.18h.04c.1,0,.18.08.18.18s-.08.18-.18.18Zm-.77,0h-.04c-.1,0-.18-.08-.18-.18s.08-.18.18-.18h.04c.1,0,.18.08.18.18s-.08.18-.18.18Zm-.77,0h-.04c-.1,0-.18-.08-.18-.18s.08-.18.18-.18h.04c.1,0,.18.08.18.18s-.08.18-.18.18Zm-.77,0h-.04c-.1,0-.18-.08-.18-.18s.08-.18.18-.18h.04c.1,0,.18.08.18.18s-.08.18-.18.18Zm-.77,0h-.04c-.1,0-.18-.08-.18-.18s.08-.18.18-.18h.04c.1,0,.18.08.18.18s-.08.18-.18.18Zm-.77,0h-.04c-.1,0-.18-.08-.18-.18s.08-.18.18-.18h.04c.1,0,.18.08.18.18s-.08.18-.18.18Zm-.77,0h-.04c-.1,0-.18-.08-.18-.18s.08-.18.18-.18h.04c.1,0,.18.08.18.18s-.08.18-.18.18Zm-.77,0h-.04c-.1,0-.18-.08-.18-.18s.08-.18.18-.18h.04c.1,0,.18.08.18.18s-.08.18-.18.18Zm-.77,0h-.04c-.1,0-.18-.08-.18-.18s.08-.18.18-.18h.04c.1,0,.18.08.18.18s-.08.18-.18.18Zm-.77,0h-.04c-.1,0-.18-.08-.18-.18s.08-.18.18-.18h.04c.1,0,.18.08.18.18s-.08.18-.18.18Zm-.77,0h-.04c-.1,0-.18-.08-.18-.18s.08-.18.18-.18h.04c.1,0,.18.08.18.18s-.08.18-.18.18Zm-.77,0h-.04c-.1,0-.18-.08-.18-.18s.08-.18.18-.18h.04c.1,0,.18.08.18.18s-.08.18-.18.18Zm-.77,0h-.04c-.1,0-.18-.08-.18-.18s.08-.18.18-.18h.04c.1,0,.18.08.18.18s-.08.18-.18.18Zm-.77,0h-.04c-.1,0-.18-.08-.18-.18s.08-.18.18-.18h.04c.1,0,.18.08.18.18s-.08.18-.18.18Zm-.77,0h-.04c-.1,0-.18-.08-.18-.18s.08-.18.18-.18h.04c.1,0,.18.08.18.18s-.08.18-.18.18Zm-.77,0h-.04c-.1,0-.18-.08-.18-.18s.08-.18.18-.18h.04c.1,0,.18.08.18.18s-.08.18-.18.18Zm-.77,0h-.04c-.1,0-.18-.08-.18-.18s.08-.18.18-.18h.04c.1,0,.18.08.18.18s-.08.18-.18.18Zm-.77,0h-.04c-.1,0-.18-.08-.18-.18s.08-.18.18-.18h.04c.1,0,.18.08.18.18s-.08.18-.18.18Zm-.77,0h-.04c-.1,0-.18-.08-.18-.18s.08-.18.18-.18h.04c.1,0,.18.08.18.18s-.08.18-.18.18Zm-.77,0h-.04c-.1,0-.18-.08-.18-.18s.08-.18.18-.18h.04c.1,0,.18.08.18.18s-.08.18-.18.18Zm-.77,0h-.04c-.1,0-.18-.08-.18-.18s.08-.18.18-.18h.04c.1,0,.18.08.18.18s-.08.18-.18.18Zm-.77,0h-.04c-.1,0-.18-.08-.18-.18s.08-.18.18-.18h.04c.1,0,.18.08.18.18s-.08.18-.18.18Zm-.77,0h-.04c-.1,0-.18-.08-.18-.18s.08-.18.18-.18h.04c.1,0,.18.08.18.18s-.08.18-.18.18Zm-.77,0h-.04c-.1,0-.18-.08-.18-.18s.08-.18.18-.18h.04c.1,0,.18.08.18.18s-.08.18-.18.18Zm-.77,0h-.04c-.1,0-.18-.08-.18-.18s.08-.18.18-.18h.04c.1,0,.18.08.18.18s-.08.18-.18.18Zm-.77,0h-.04c-.1,0-.18-.08-.18-.18s.08-.18.18-.18h.04c.1,0,.18.08.18.18s-.08.18-.18.18Zm-.77,0h-.04c-.1,0-.18-.08-.18-.18s.08-.18.18-.18h.04c.1,0,.18.08.18.18s-.08.18-.18.18Zm-.77,0h-.04c-.1,0-.18-.08-.18-.18s.08-.18.18-.18h.04c.1,0,.18.08.18.18s-.08.18-.18.18Zm-.77,0h-.04c-.1,0-.18-.08-.18-.18s.08-.18.18-.18h.04c.1,0,.18.08.18.18s-.08.18-.18.18Zm-.77,0h-.04c-.1,0-.18-.08-.18-.18s.08-.18.18-.18h.04c.1,0,.18.08.18.18s-.08.18-.18.18Zm-.77,0h-.04c-.1,0-.18-.08-.18-.18s.08-.18.18-.18h.04c.1,0,.18.08.18.18s-.08.18-.18.18Zm-.77,0h-.04c-.1,0-.18-.08-.18-.18s.08-.18.18-.18h.04c.1,0,.18.08.18.18s-.08.18-.18.18Zm-.77,0h-.04c-.1,0-.18-.08-.18-.18s.08-.18.18-.18h.04c.1,0,.18.08.18.18s-.08.18-.18.18Zm-.77,0h-.04c-.1,0-.18-.08-.18-.18s.08-.18.18-.18h.04c.1,0,.18.08.18.18s-.08.18-.18.18Zm-.77,0h-.04c-.1,0-.18-.08-.18-.18s.08-.18.18-.18h.04c.1,0,.18.08.18.18s-.08.18-.18.18Zm-.77,0h-.04c-.1,0-.18-.08-.18-.18s.08-.18.18-.18h.04c.1,0,.18.08.18.18s-.08.18-.18.18Zm-.77,0h-.04c-.1,0-.18-.08-.18-.18s.08-.18.18-.18h.04c.1,0,.18.08.18.18s-.08.18-.18.18Zm-.77,0h-.04c-.1,0-.18-.08-.18-.18s.08-.18.18-.18h.04c.1,0,.18.08.18.18s-.08.18-.18.18Zm-.77,0h-.04c-.1,0-.18-.08-.18-.18s.08-.18.18-.18h.04c.1,0,.18.08.18.18s-.08.18-.18.18Zm-.77,0h-.04c-.1,0-.18-.08-.18-.18s.08-.18.18-.18h.04c.1,0,.18.08.18.18s-.08.18-.18.18Z"/>
      <path class="cls-6" d="m96.75,45.34h-.04c-.1,0-.18-.08-.18-.18s.08-.18.18-.18h.04c.1,0,.18.08.18.18s-.08.18-.18.18Zm-.77,0h-.04c-.1,0-.18-.08-.18-.18s.08-.18.18-.18h.04c.1,0,.18.08.18.18s-.08.18-.18.18Zm-.77,0h-.04c-.1,0-.18-.08-.18-.18s.08-.18.18-.18h.04c.1,0,.18.08.18.18s-.08.18-.18.18Zm-.77,0h-.04c-.1,0-.18-.08-.18-.18s.08-.18.18-.18h.04c.1,0,.18.08.18.18s-.08.18-.18.18Zm-.77,0h-.04c-.1,0-.18-.08-.18-.18s.08-.18.18-.18h.04c.1,0,.18.08.18.18s-.08.18-.18.18Zm-.77,0h-.04c-.1,0-.18-.08-.18-.18s.08-.18.18-.18h.04c.1,0,.18.08.18.18s-.08.18-.18.18Zm-.77,0h-.04c-.1,0-.18-.08-.18-.18s.08-.18.18-.18h.04c.1,0,.18.08.18.18s-.08.18-.18.18Zm-.77,0h-.04c-.1,0-.18-.08-.18-.18s.08-.18.18-.18h.04c.1,0,.18.08.18.18s-.08.18-.18.18Zm-.77,0h-.04c-.1,0-.18-.08-.18-.18s.08-.18.18-.18h.04c.1,0,.18.08.18.18s-.08.18-.18.18Zm-.77,0h-.04c-.1,0-.18-.08-.18-.18s.08-.18.18-.18h.04c.1,0,.18.08.18.18s-.08.18-.18.18Zm-.77,0h-.04c-.1,0-.18-.08-.18-.18s.08-.18.18-.18h.04c.1,0,.18.08.18.18s-.08.18-.18.18Zm-.77,0h-.04c-.1,0-.18-.08-.18-.18s.08-.18.18-.18h.04c.1,0,.18.08.18.18s-.08.18-.18.18Zm-.77,0h-.04c-.1,0-.18-.08-.18-.18s.08-.18.18-.18h.04c.1,0,.18.08.18.18s-.08.18-.18.18Zm-.77,0h-.04c-.1,0-.18-.08-.18-.18s.08-.18.18-.18h.04c.1,0,.18.08.18.18s-.08.18-.18.18Zm-.77,0h-.04c-.1,0-.18-.08-.18-.18s.08-.18.18-.18h.04c.1,0,.18.08.18.18s-.08.18-.18.18Zm-.77,0h-.04c-.1,0-.18-.08-.18-.18s.08-.18.18-.18h.04c.1,0,.18.08.18.18s-.08.18-.18.18Zm-.77,0h-.04c-.1,0-.18-.08-.18-.18s.08-.18.18-.18h.04c.1,0,.18.08.18.18s-.08.18-.18.18Zm-.77,0h-.04c-.1,0-.18-.08-.18-.18s.08-.18.18-.18h.04c.1,0,.18.08.18.18s-.08.18-.18.18Zm-.77,0h-.04c-.1,0-.18-.08-.18-.18s.08-.18.18-.18h.04c.1,0,.18.08.18.18s-.08.18-.18.18Zm-.77,0h-.04c-.1,0-.18-.08-.18-.18s.08-.18.18-.18h.04c.1,0,.18.08.18.18s-.08.18-.18.18Zm-.77,0h-.04c-.1,0-.18-.08-.18-.18s.08-.18.18-.18h.04c.1,0,.18.08.18.18s-.08.18-.18.18Zm-.77,0h-.04c-.1,0-.18-.08-.18-.18s.08-.18.18-.18h.04c.1,0,.18.08.18.18s-.08.18-.18.18Zm-.77,0h-.04c-.1,0-.18-.08-.18-.18s.08-.18.18-.18h.04c.1,0,.18.08.18.18s-.08.18-.18.18Zm-.77,0h-.04c-.1,0-.18-.08-.18-.18s.08-.18.18-.18h.04c.1,0,.18.08.18.18s-.08.18-.18.18Zm-.77,0h-.04c-.1,0-.18-.08-.18-.18s.08-.18.18-.18h.04c.1,0,.18.08.18.18s-.08.18-.18.18Zm-.77,0h-.04c-.1,0-.18-.08-.18-.18s.08-.18.18-.18h.04c.1,0,.18.08.18.18s-.08.18-.18.18Zm-.77,0h-.04c-.1,0-.18-.08-.18-.18s.08-.18.18-.18h.04c.1,0,.18.08.18.18s-.08.18-.18.18Zm-.77,0h-.04c-.1,0-.18-.08-.18-.18s.08-.18.18-.18h.04c.1,0,.18.08.18.18s-.08.18-.18.18Zm-.77,0h-.04c-.1,0-.18-.08-.18-.18s.08-.18.18-.18h.04c.1,0,.18.08.18.18s-.08.18-.18.18Zm-.77,0h-.04c-.1,0-.18-.08-.18-.18s.08-.18.18-.18h.04c.1,0,.18.08.18.18s-.08.18-.18.18Zm-.77,0h-.04c-.1,0-.18-.08-.18-.18s.08-.18.18-.18h.04c.1,0,.18.08.18.18s-.08.18-.18.18Zm-.77,0h-.04c-.1,0-.18-.08-.18-.18s.08-.18.18-.18h.04c.1,0,.18.08.18.18s-.08.18-.18.18Zm-.77,0h-.04c-.1,0-.18-.08-.18-.18s.08-.18.18-.18h.04c.1,0,.18.08.18.18s-.08.18-.18.18Z"/>
      <path class="cls-6" d="m97.31,64.07h-.04c-.1,0-.18-.08-.18-.18s.08-.18.18-.18h.04c.1,0,.18.08.18.18s-.08.18-.18.18Zm-.77,0h-.04c-.1,0-.18-.08-.18-.18s.08-.18.18-.18h.04c.1,0,.18.08.18.18s-.08.18-.18.18Zm-.77,0h-.04c-.1,0-.18-.08-.18-.18s.08-.18.18-.18h.04c.1,0,.18.08.18.18s-.08.18-.18.18Zm-.77,0h-.04c-.1,0-.18-.08-.18-.18s.08-.18.18-.18h.04c.1,0,.18.08.18.18s-.08.18-.18.18Zm-.77,0h-.04c-.1,0-.18-.08-.18-.18s.08-.18.18-.18h.04c.1,0,.18.08.18.18s-.08.18-.18.18Zm-.77,0h-.04c-.1,0-.18-.08-.18-.18s.08-.18.18-.18h.04c.1,0,.18.08.18.18s-.08.18-.18.18Zm-.77,0h-.04c-.1,0-.18-.08-.18-.18s.08-.18.18-.18h.04c.1,0,.18.08.18.18s-.08.18-.18.18Zm-.77,0h-.04c-.1,0-.18-.08-.18-.18s.08-.18.18-.18h.04c.1,0,.18.08.18.18s-.08.18-.18.18Zm-.77,0h-.04c-.1,0-.18-.08-.18-.18s.08-.18.18-.18h.04c.1,0,.18.08.18.18s-.08.18-.18.18Zm-.77,0h-.04c-.1,0-.18-.08-.18-.18s.08-.18.18-.18h.04c.1,0,.18.08.18.18s-.08.18-.18.18Zm-.77,0h-.04c-.1,0-.18-.08-.18-.18s.08-.18.18-.18h.04c.1,0,.18.08.18.18s-.08.18-.18.18Zm-.77,0h-.04c-.1,0-.18-.08-.18-.18s.08-.18.18-.18h.04c.1,0,.18.08.18.18s-.08.18-.18.18Zm-.77,0h-.04c-.1,0-.18-.08-.18-.18s.08-.18.18-.18h.04c.1,0,.18.08.18.18s-.08.18-.18.18Zm-.77,0h-.04c-.1,0-.18-.08-.18-.18s.08-.18.18-.18h.04c.1,0,.18.08.18.18s-.08.18-.18.18Zm-.77,0h-.04c-.1,0-.18-.08-.18-.18s.08-.18.18-.18h.04c.1,0,.18.08.18.18s-.08.18-.18.18Zm-.77,0h-.04c-.1,0-.18-.08-.18-.18s.08-.18.18-.18h.04c.1,0,.18.08.18.18s-.08.18-.18.18Zm-.77,0h-.04c-.1,0-.18-.08-.18-.18s.08-.18.18-.18h.04c.1,0,.18.08.18.18s-.08.18-.18.18Zm-.77,0h-.04c-.1,0-.18-.08-.18-.18s.08-.18.18-.18h.04c.1,0,.18.08.18.18s-.08.18-.18.18Zm-.77,0h-.04c-.1,0-.18-.08-.18-.18s.08-.18.18-.18h.04c.1,0,.18.08.18.18s-.08.18-.18.18Zm-.77,0h-.04c-.1,0-.18-.08-.18-.18s.08-.18.18-.18h.04c.1,0,.18.08.18.18s-.08.18-.18.18Zm-.77,0h-.04c-.1,0-.18-.08-.18-.18s.08-.18.18-.18h.04c.1,0,.18.08.18.18s-.08.18-.18.18Z"/>
      <g>
        <path class="cls-3" d="m99.04,13.28c0-.53.42-.96.96-.96.32,0,.6.15.77.39l-.29.21c-.11-.15-.26-.24-.46-.24-.34,0-.59.27-.59.6s.25.61.59.61c.2,0,.36-.09.47-.25l.29.21c-.17.23-.45.39-.77.39-.53,0-.96-.43-.96-.97Z"/>
        <path class="cls-3" d="m102.24,12.95v1.27h-.36v-.21c-.05.17-.26.24-.38.24-.33,0-.51-.22-.51-.6v-.7h.36v.66c0,.2.12.29.24.29s.29-.07.29-.3v-.65h.36Z"/>
        <path class="cls-3" d="m102.6,12.27h.36v1.95h-.36v-1.95Z"/>
        <path class="cls-3" d="m104.07,13.23h-.27v1h-.36v-1h-.23v-.28h.23v-.47h.36v.47h.27v.28Z"/>
        <path class="cls-3" d="m105.53,12.95v1.27h-.36v-.21c-.05.17-.26.24-.38.24-.33,0-.51-.22-.51-.6v-.7h.36v.66c0,.2.12.29.24.29s.29-.07.29-.3v-.65h.36Z"/>
        <path class="cls-3" d="m106.83,12.96l-.08.34c-.08-.04-.14-.05-.18-.05-.18,0-.31.17-.31.53v.44h-.36v-1.27h.36v.27c.07-.21.22-.3.37-.3.07,0,.14.01.2.04Z"/>
        <path class="cls-3" d="m108.25,13.7h-.96c.04.15.16.23.33.23.13,0,.26-.05.33-.14l.21.21c-.12.16-.34.25-.57.25-.39,0-.68-.27-.68-.66s.31-.67.68-.67.66.26.66.65c0,.04,0,.08,0,.14Zm-.35-.23c-.01-.15-.14-.24-.3-.24-.14,0-.27.07-.31.24h.61Z"/>
      </g>
      <g>
        <path class="cls-3" d="m100.4,36.09h-.52v1.55h-.38v-1.55h-.52v-.34h1.42v.34Z"/>
        <path class="cls-3" d="m101.66,37.11h-.96c.04.15.16.23.33.23.13,0,.26-.05.33-.14l.21.21c-.12.16-.34.25-.57.25-.39,0-.68-.27-.68-.66,0-.41.31-.67.68-.67s.66.26.66.65c0,.04,0,.08,0,.14Zm-.35-.23c-.01-.15-.14-.24-.3-.24-.14,0-.27.07-.31.24h.61Z"/>
        <path class="cls-3" d="m103.26,36.36v1.27h-.36v-.16c-.09.13-.27.18-.41.18-.33,0-.63-.25-.63-.66s.3-.66.63-.66c.15,0,.32.05.41.18v-.15h.36Zm-.37.63c0-.2-.16-.33-.33-.33-.18,0-.33.14-.33.33s.15.33.33.33.33-.14.33-.33Z"/>
        <path class="cls-3" d="m105.66,36.93v.7h-.36v-.67c0-.2-.1-.28-.23-.28-.14,0-.24.09-.25.28v.67h-.36v-.67c0-.2-.1-.28-.22-.28-.13,0-.26.06-.26.29v.66h-.36v-1.27h.36v.23c.04-.17.22-.26.36-.26.19,0,.34.09.41.25.1-.19.3-.25.43-.25.32,0,.49.22.49.61Z"/>
        <path class="cls-3" d="m106.8,35.75h.29l-.91,1.88h-.29l.91-1.88Z"/>
        <path class="cls-3" d="m107.76,36.09v.45h.62v.33h-.62v.76h-.38v-1.88h1.16v.34h-.78Z"/>
        <path class="cls-3" d="m110.01,36.36v1.27h-.36v-.16c-.09.13-.27.18-.41.18-.33,0-.63-.25-.63-.66s.3-.66.63-.66c.15,0,.32.05.41.18v-.15h.36Zm-.37.63c0-.2-.16-.33-.33-.33-.18,0-.33.14-.33.33s.15.33.33.33.33-.14.33-.33Z"/>
        <path class="cls-3" d="m112.41,36.93v.7h-.36v-.67c0-.2-.1-.28-.23-.28-.14,0-.24.09-.25.28v.67h-.36v-.67c0-.2-.1-.28-.22-.28-.13,0-.26.06-.26.29v.66h-.36v-1.27h.36v.23c.04-.17.22-.26.36-.26.19,0,.34.09.41.25.1-.19.3-.25.43-.25.32,0,.49.22.49.61Z"/>
        <path class="cls-3" d="m112.71,35.92c0-.12.1-.21.23-.21s.23.09.23.21-.1.22-.23.22-.23-.1-.23-.22Zm.05.44h.36v1.27h-.36v-1.27Z"/>
        <path class="cls-3" d="m113.47,35.68h.36v1.95h-.36v-1.95Z"/>
        <path class="cls-3" d="m115.4,36.36l-.79,1.9h-.38l.3-.75-.5-1.15h.39l.3.73.29-.73h.39Z"/>
      </g>
      <g>
        <path class="cls-3" d="m99.67,55.47h-.13v.67h-.38v-1.88h.75c.43,0,.62.31.62.61,0,.27-.14.51-.46.57l.49.69h-.45l-.45-.67Zm-.13-.31h.3c.21,0,.3-.13.3-.28s-.1-.29-.27-.29h-.33v.57Z"/>
        <path class="cls-3" d="m102.04,55.62h-.96c.04.15.16.23.33.23.13,0,.26-.05.33-.14l.21.21c-.12.16-.34.25-.57.25-.39,0-.68-.27-.68-.66,0-.41.31-.67.68-.67s.66.26.66.65c0,.04,0,.08,0,.14Zm-.35-.23c-.01-.15-.14-.24-.3-.24-.14,0-.27.07-.31.24h.61Z"/>
        <path class="cls-3" d="m102.32,54.19h.36v1.95h-.36v-1.95Z"/>
        <path class="cls-3" d="m104.36,54.87v1.27h-.36v-.16c-.09.13-.27.18-.41.18-.33,0-.63-.25-.63-.66s.3-.66.63-.66c.15,0,.32.05.41.18v-.15h.36Zm-.37.63c0-.2-.16-.33-.33-.33-.18,0-.33.14-.33.33s.15.33.33.33.33-.14.33-.33Z"/>
        <path class="cls-3" d="m105.47,55.15h-.27v1h-.36v-1h-.23v-.28h.23v-.47h.36v.47h.27v.28Z"/>
        <path class="cls-3" d="m105.65,54.43c0-.12.1-.21.23-.21s.23.09.23.21-.1.22-.23.22-.23-.1-.23-.22Zm.05.44h.36v1.27h-.36v-1.27Z"/>
        <path class="cls-3" d="m106.34,55.5c0-.4.32-.67.69-.67s.69.26.69.67-.32.66-.69.66-.69-.26-.69-.66Zm1.01,0c0-.2-.14-.33-.32-.33s-.32.13-.32.33.14.33.32.33.32-.13.32-.33Z"/>
        <path class="cls-3" d="m109.24,55.44v.7h-.36v-.66c0-.2-.12-.29-.24-.29s-.29.07-.29.3v.65h-.36v-1.27h.36v.21c.05-.17.26-.25.38-.25.33,0,.51.22.51.61Z"/>
        <path class="cls-3" d="m109.51,55.73h.34c0,.07.06.15.19.15.1,0,.18-.04.18-.12,0-.05-.04-.08-.14-.11l-.17-.04c-.33-.09-.37-.27-.37-.4,0-.2.2-.38.5-.38.23,0,.51.11.5.42h-.34c0-.08-.07-.13-.16-.13s-.15.04-.15.11c0,.06.05.09.13.11l.21.05c.31.08.34.27.34.38,0,.27-.27.4-.54.4s-.53-.15-.53-.43Z"/>
        <path class="cls-3" d="m112.1,55.44v.7h-.36v-.66c0-.2-.12-.29-.24-.29s-.29.07-.29.3v.65h-.36v-1.95h.36v.88c.05-.16.26-.23.38-.23.33,0,.51.22.51.61Z"/>
        <path class="cls-3" d="m112.4,54.43c0-.12.1-.21.23-.21s.23.09.23.21-.1.22-.23.22-.23-.1-.23-.22Zm.05.44h.36v1.27h-.36v-1.27Z"/>
        <path class="cls-3" d="m114.56,55.5c0,.41-.3.66-.63.66-.14,0-.32-.05-.41-.18v.78h-.36v-1.9h.36v.15c.09-.13.27-.19.41-.19.33,0,.63.26.63.67Zm-.37,0c0-.19-.15-.33-.33-.33s-.33.14-.33.33.16.33.33.33c.18,0,.33-.14.33-.33Z"/>
      </g>
      <g>
        <path class="cls-3" d="m99.16,72.25h.38v1.88h-.38v-1.88Z"/>
        <path class="cls-3" d="m101.18,73.43v.7h-.36v-.66c0-.2-.12-.29-.24-.29s-.29.07-.29.3v.65h-.36v-1.27h.36v.21c.05-.17.26-.25.38-.25.33,0,.51.22.51.61Z"/>
        <path class="cls-3" d="m102.84,72.17v1.95h-.36v-.16c-.09.13-.27.18-.41.18-.33,0-.63-.25-.63-.66s.3-.66.63-.66c.15,0,.32.05.41.18v-.83h.36Zm-.37,1.31c0-.2-.16-.33-.33-.33-.18,0-.33.14-.33.33s.15.33.33.33.33-.14.33-.33Z"/>
        <path class="cls-3" d="m103.15,72.41c0-.12.1-.21.23-.21s.23.09.23.21-.1.22-.23.22-.23-.1-.23-.22Zm.05.44h.36v1.27h-.36v-1.27Z"/>
        <path class="cls-3" d="m105.15,72.86l-.54,1.27h-.32l-.54-1.27h.39l.31.81.31-.81h.39Z"/>
        <path class="cls-3" d="m105.29,72.41c0-.12.1-.21.23-.21s.23.09.23.21-.1.22-.23.22-.23-.1-.23-.22Zm.05.44h.36v1.27h-.36v-1.27Z"/>
        <path class="cls-3" d="m107.38,72.17v1.95h-.36v-.16c-.09.13-.27.18-.41.18-.33,0-.63-.25-.63-.66s.3-.66.63-.66c.15,0,.32.05.41.18v-.83h.36Zm-.37,1.31c0-.2-.16-.33-.33-.33-.18,0-.33.14-.33.33s.15.33.33.33.33-.14.33-.33Z"/>
        <path class="cls-3" d="m108.97,72.86v1.27h-.36v-.21c-.05.17-.26.24-.38.24-.33,0-.51-.22-.51-.6v-.7h.36v.66c0,.2.12.29.24.29s.29-.07.29-.3v-.65h.36Z"/>
        <path class="cls-3" d="m110.64,72.86v1.27h-.36v-.16c-.09.13-.27.18-.41.18-.33,0-.63-.25-.63-.66s.3-.66.63-.66c.15,0,.32.05.41.18v-.15h.36Zm-.37.63c0-.2-.16-.33-.33-.33-.18,0-.33.14-.33.33s.15.33.33.33.33-.14.33-.33Z"/>
        <path class="cls-3" d="m111.01,72.17h.36v1.95h-.36v-1.95Z"/>
      </g>
    </g>
  </g>
</svg>